<?xml version="1.0" encoding="UTF-8" standalone="no"?>
<svg
   xmlns:dc="http://purl.org/dc/elements/1.1/"
   xmlns:cc="http://creativecommons.org/ns#"
   xmlns:rdf="http://www.w3.org/1999/02/22-rdf-syntax-ns#"
   xmlns:svg="http://www.w3.org/2000/svg"
   xmlns="http://www.w3.org/2000/svg"
   id="svg48"
   xml:space="preserve"
   viewBox="0 0 1024 768"
   y="0px"
   x="0px"
   version="1.1"><metadata
     id="metadata52"><rdf:RDF><cc:Work
         rdf:about=""><dc:format>image/svg+xml</dc:format><dc:type
           rdf:resource="http://purl.org/dc/dcmitype/StillImage" /></cc:Work></rdf:RDF></metadata><style
     id="style2">
#logo-fade{
opacity: 0;
animation: fadeIn 5s ease-in forwards infinite;
}

@keyframes fadeIn { 0% { opacity:0; } 30% { opacity:0; }60% { opacity:1; } 100% { opacity:1; } }

#outline{
opacity: 1;
stroke-dasharray: 2000;
stroke-dashoffset: 2000;
animation: dash 5s ease-in-out forwards infinite;
}

@keyframes dash {
  0% {
    opacity: 1;
    stroke-dashoffset: 2000;
  }
  60% {
    opacity: 1;
    stroke-dashoffset: 0;
  }
  100% {
    opacity: 1;
    stroke-dashoffset: 0;
  }
}
</style><defs
     id="defs7"><clipPath
       id="clip"><path
         id="path4"
         d="m420.09 320.74c-6.78 0-13.17 1.85-17.88 5.58-4.72 3.74-7.74 9.37-7.74 16.72 0 11.37 5.89 19.61 16.3 24.3l0.66 0.3 1.85-5.05-0.56-0.26c-7.3-3.35-12.88-9.06-12.88-19.29 0-5.67 2.25-9.83 5.89-12.65 3.64-2.83 8.73-4.28 14.36-4.28 8.38 0 11.65 1.1 15.62 2.86l-1.56 4.29c-4.93-1.99-9.42-3.01-14.02-3.01-5.46 0-9.37 1.51-11.91 3.89-2.53 2.38-3.66 5.59-3.66 8.85 0 4.85 1.56 8.28 3.89 10.85 2.32 2.56 5.38 4.27 8.39 5.89 3.07 1.67 6.09 3.11 8.3 5.2 2.2 2.1 3.65 4.81 3.65 9.3 0 2.52-0.93 4.15-2.82 5.3-1.88 1.14-4.8 1.72-8.62 1.72-6.36 0-13.35-2.63-19.88-6.07l-0.67-0.35-5.38 14.28 0.52 0.27c7.27 3.93 15.14 6.76 25.41 6.76 7.72 0 14.43-1.82 19.24-5.49 4.81-3.68 7.67-9.23 7.67-16.42 0-6.75-1.75-12.29-5.12-16.78-3.36-4.48-8.32-7.89-14.67-10.47l-0.65-0.26-0.23 0.66-1.56 4.4 0.59 0.24c5.69 2.34 9.74 5.27 12.38 8.9s3.89 7.99 3.89 13.31c0 6.25-2.6 10.29-6.59 12.88-3.98 2.59-9.42 3.66-14.95 3.66-6.83 0-12.72-1.32-19.2-4.31l1.61-4.26c6.38 2.89 12.31 4.43 17.59 4.43 7.15 0 11.41-1.89 13.84-4.43 2.43-2.55 2.97-5.68 2.97-7.97 0-5.87-2-9.83-4.85-12.71-2.84-2.87-6.49-4.68-9.82-6.48-2.62-1.42-5.03-2.71-6.75-4.48-1.72-1.78-2.8-4.01-2.8-7.57 0-2.39 0.82-4.15 2.48-5.39 1.66-1.25 4.22-1.97 7.71-1.97 5.5 0 10.57 1.59 16.38 4.58l0.67 0.35 5.27-14.34-0.53-0.27c-6.06-3.08-10.55-5.21-21.83-5.21zm-164.09 1.05v14.89h14.07v-5.37h-8.7v-4.14h13.42v67.97h15.47v-67.97h13.37v4.14h-8.65v5.37h14.03v-14.89h-24.12v0.67 67.3h-4.72v-67.97h-24.17zm72.85 0v73.35h45.89v-14.9h-30.43v-25.63h23.28v4.15h-18.56v5.37h23.93v-14.89h-34.02v36.38h30.43v4.14h-35.15v-62.59h34.48v4.14h-29.76v13.79h5.37v-8.42h29.76v-14.89h-45.22zm131.61 0v14.89h14.07v-5.37h-8.7v-4.14h13.42v67.97h15.47v-67.97h13.37v4.14h-8.65v5.37h14.02v-14.89h-24.12v0.67 67.3h-4.72v-67.97h-24.16zm108.7 0v63.83h35.77v4.14h-35.77v5.38h41.14v-14.9h-35.76v-53.07h4.72v48.93h5.37v-54.31h-15.47zm145.54 0v32.78h26.05c4.15 0 7.54-1.1 9.89-3.23 2.36-2.13 3.61-5.28 3.61-9.17 0-2.56-0.93-5.3-3.15-7.39-2.23-2.08-5.71-3.47-10.69-3.47h-15.61v13.74h5.37v-8.37h10.24c2.61 0 4.77 0.51 6.23 1.44 1.45 0.93 2.24 2.21 2.24 4.05 0 2.38-0.64 4.08-1.88 5.23s-3.16 1.79-5.86 1.79h-21.06v-22.02h21.1c11.26 0 17.6 6.98 17.6 14.13 0 7.96-3.74 11.64-6.81 14.04l-0.89 0.7 1.04 0.44c6.36 2.72 10.51 7.68 10.51 16.45 0 9-6.54 16.83-19.04 16.83h-23.51v-25.72h22.54c3.5 0 5.96 1.02 7.55 2.54 1.6 1.52 2.36 3.58 2.36 5.78 0 2.15-0.62 4.1-2 5.52-1.37 1.42-3.52 2.36-6.75 2.36h-13.61v-12.06h-5.37v17.44h18.98c4.76 0 8.33-1.58 10.67-4.06 2.35-2.47 3.46-5.79 3.46-9.2 0-3.87-1.49-7.33-4.16-9.78-2.66-2.46-6.49-3.92-11.13-3.92h-27.92v36.48h28.89c14.95 0 24.41-9.95 24.41-22.21 0-7.98-2.99-13.96-8.12-17.98 2.92-3.87 4.27-8.78 4.27-13.65 0-10-8.73-19.51-22.97-19.51h-26.48zm-65.63 1.85v7.21h2.4v14.05l-14.42 21.62-14.41 21.62v7.57h72.07v-7.57l-14.42-21.62-14.41-21.62v-14.05h2.4v-7.2l-9.6-0.01h-9.61zm2.4 2.4h7.21 7.2v2.41h-2.4v17.17l7.89 11.83 7.88 11.83h-41.16l7.89-11.83 7.89-11.83v-17.17h-2.4v-2.41zm10.73 29.81c-0.01 0-0.45 0.44-0.99 0.98l-0.98 0.98 0.36 1.33c0.2 0.74 0.37 1.34 0.37 1.35 0 0 0.6 0.16 1.32 0.36 0.73 0.19 1.33 0.35 1.34 0.35 0.02 0 0.47-0.44 1-0.98l0.98-0.97-0.36-1.33c-0.2-0.74-0.36-1.34-0.37-1.34 0-0.01-0.61-0.18-1.34-0.37-0.73-0.2-1.33-0.36-1.33-0.36zm-10.19 3.41c-0.01 0-0.45 0.44-0.99 0.98l-0.98 0.97 0.36 1.34c0.2 0.74 0.37 1.34 0.37 1.34 0 0.01 0.6 0.17 1.34 0.36l1.33 0.36 0.97-0.98c0.54-0.54 0.98-0.99 0.98-1s-0.16-0.61-0.35-1.33-0.36-1.31-0.37-1.32c0-0.01-0.6-0.17-1.33-0.37-0.72-0.19-1.32-0.34-1.33-0.34v-0.01zm-15.51 12.43h22.18 22.18l0.8 1.2 0.8 1.2h-47.56l0.8-1.2 0.8-1.2zm-3.21 4.8h25.39 25.38l0.8 1.2 0.8 1.2h-53.97l0.8-1.2 0.8-1.2zm-3.2 4.8h28.59 28.58l0.8 1.21 0.8 1.2h-60.38l0.81-1.2 0.8-1.21zm-3.2 4.81h31.79 31.78l0.8 1.2 0.8 1.2h-66.77l0.8-1.2 0.8-1.2zm-1.85 4.8h33.64 33.62v2.41h-67.26v-2.41zm-86.4 32.78c-0.4 0-0.7 0.21-0.92 0.63l-9.89 19.91c-0.07 0.19-0.11 0.35-0.11 0.47 0 0.27 0.1 0.5 0.3 0.69 0.22 0.19 0.46 0.28 0.71 0.28 0.41 0 0.71-0.2 0.9-0.61l9.86-19.91c0.07-0.16 0.11-0.33 0.11-0.52 0-0.27-0.1-0.49-0.3-0.66-0.21-0.19-0.43-0.28-0.66-0.28zm-125.06 1.41c-0.32 0-0.58 0.11-0.8 0.33s-0.33 0.49-0.33 0.8v15.19c0 0.32 0.1 0.59 0.3 0.81 0.22 0.22 0.49 0.33 0.8 0.33 0.32 0 0.59-0.11 0.81-0.33s0.33-0.49 0.33-0.81v-15.19c0-0.31-0.11-0.58-0.33-0.8-0.21-0.22-0.47-0.33-0.78-0.33zm86.23 0c-0.33 0-0.6 0.11-0.8 0.33-0.21 0.21-0.31 0.47-0.31 0.8v5.55c-0.44-0.55-1.01-1-1.72-1.35-0.71-0.34-1.48-0.52-2.31-0.52-1.04 0-1.99 0.28-2.86 0.83-0.86 0.55-1.55 1.32-2.05 2.31-0.49 0.98-0.73 2.08-0.73 3.3 0 1.23 0.25 2.34 0.76 3.33 0.5 0.97 1.18 1.74 2.05 2.29 0.86 0.55 1.83 0.82 2.9 0.82 0.82 0 1.58-0.19 2.29-0.59 0.72-0.39 1.28-0.87 1.67-1.44v0.66c0 0.33 0.1 0.61 0.31 0.83 0.2 0.2 0.47 0.31 0.8 0.31s0.6-0.11 0.8-0.33c0.22-0.22 0.33-0.49 0.33-0.81v-15.19c0-0.33-0.11-0.59-0.33-0.8-0.2-0.22-0.47-0.33-0.8-0.33zm141.7 0c-0.31 0-0.58 0.11-0.8 0.33s-0.33 0.49-0.33 0.8v15.19c0 0.32 0.1 0.59 0.31 0.81 0.22 0.22 0.48 0.33 0.8 0.33 0.31 0 0.58-0.11 0.8-0.33s0.33-0.49 0.33-0.81v-15.19c0-0.31-0.11-0.58-0.33-0.8-0.21-0.22-0.46-0.33-0.78-0.33zm37.53 0.05c-1.29 0-2.29 0.33-3 0.99-0.7 0.65-1.06 1.52-1.06 2.62v1.65h-1.46c-0.3 0-0.55 0.1-0.75 0.31-0.21 0.19-0.31 0.43-0.31 0.73s0.1 0.54 0.31 0.73c0.2 0.19 0.45 0.28 0.75 0.28h1.46v8.96c0 0.32 0.1 0.59 0.31 0.81 0.22 0.22 0.49 0.33 0.8 0.33 0.33 0 0.6-0.11 0.8-0.33 0.22-0.22 0.33-0.49 0.33-0.81v-8.96h2.34c0.31 0 0.57-0.09 0.75-0.28 0.21-0.19 0.31-0.43 0.31-0.73s-0.1-0.54-0.31-0.73c-0.18-0.21-0.44-0.31-0.75-0.31h-2.34v-1.65c0-0.46 0.12-0.84 0.36-1.16 0.25-0.31 0.64-0.47 1.15-0.47 0.26 0 0.55 0.05 0.9 0.14 0.28 0.07 0.46 0.1 0.52 0.1 0.25 0 0.46-0.1 0.64-0.29 0.18-0.2 0.28-0.45 0.28-0.75 0-0.39-0.21-0.68-0.61-0.87-0.41-0.21-0.88-0.31-1.42-0.31zm-161.01 0.82c-0.18 0.01-0.35 0.06-0.5 0.17-0.19 0.13-0.34 0.32-0.45 0.57l-6.02 14.57c-0.03 0.19-0.04 0.32-0.04 0.38 0 0.3 0.08 0.53 0.26 0.71 0.17 0.17 0.42 0.26 0.75 0.26 0.22 0 0.42-0.07 0.59-0.19 0.19-0.13 0.32-0.31 0.4-0.54l1.44-3.49h7.29l1.46 3.46c0.11 0.24 0.25 0.43 0.42 0.57 0.19 0.12 0.4 0.19 0.62 0.19 0.28 0 0.52-0.11 0.73-0.31 0.22-0.2 0.33-0.46 0.33-0.78 0-0.15-0.02-0.3-0.07-0.45l-5.99-14.38c-0.08-0.24-0.22-0.42-0.4-0.55-0.19-0.12-0.41-0.18-0.64-0.18-0.06-0.01-0.12-0.02-0.18-0.01zm-222.29 0.08c-0.31 0-0.58 0.11-0.8 0.33s-0.33 0.48-0.33 0.8v14.24c0 0.32 0.11 0.59 0.33 0.81s0.5 0.33 0.83 0.33c0.31 0 0.58-0.11 0.8-0.33 0.23-0.22 0.35-0.49 0.35-0.81v-6.18h5.8c0.33 0 0.6-0.1 0.81-0.3 0.22-0.21 0.33-0.45 0.33-0.73 0-0.33-0.11-0.6-0.33-0.81-0.21-0.2-0.48-0.3-0.81-0.3h-5.8v-4.88h6.87c0.31 0 0.58-0.11 0.8-0.31 0.22-0.22 0.33-0.47 0.33-0.76 0-0.33-0.11-0.59-0.33-0.8-0.21-0.2-0.47-0.3-0.8-0.3h-8.05zm103.14 0c-0.31 0-0.58 0.11-0.8 0.33s-0.33 0.48-0.33 0.8v14.24c0 0.32 0.11 0.59 0.33 0.81s0.5 0.33 0.83 0.33c0.31 0 0.58-0.11 0.8-0.33 0.24-0.22 0.35-0.49 0.35-0.81v-6.18h5.81c0.33 0 0.59-0.1 0.8-0.3 0.22-0.21 0.33-0.45 0.33-0.73 0-0.33-0.11-0.6-0.33-0.81-0.21-0.2-0.47-0.3-0.8-0.3h-5.81v-4.88h6.87c0.31 0 0.58-0.11 0.8-0.31 0.22-0.22 0.33-0.47 0.33-0.76 0-0.33-0.11-0.59-0.33-0.8-0.2-0.2-0.47-0.3-0.8-0.3h-8.05zm145.85 0c-0.32 0-0.58 0.11-0.8 0.33s-0.33 0.48-0.33 0.8v14.24c0 0.32 0.11 0.59 0.33 0.81s0.48 0.33 0.8 0.33h6.06c1.46 0 2.7-0.37 3.7-1.11 1.03-0.76 1.54-2.01 1.54-3.75 0-1.1-0.29-1.99-0.85-2.67-0.55-0.69-1.26-1.18-2.13-1.48 0.7-0.32 1.22-0.76 1.58-1.35 0.37-0.59 0.55-1.27 0.55-2.03 0-1.33-0.38-2.35-1.14-3.06-0.73-0.71-1.82-1.06-3.25-1.06h-6.06zm22.2 0c-0.33 0-0.61 0.1-0.83 0.3-0.2 0.19-0.31 0.44-0.31 0.76 0 0.33 0.11 0.6 0.31 0.8 0.22 0.19 0.5 0.28 0.83 0.28h4.17v13.23c0 0.32 0.11 0.59 0.33 0.81 0.24 0.22 0.53 0.33 0.87 0.33 0.35 0 0.63-0.11 0.85-0.33 0.24-0.22 0.36-0.49 0.36-0.81v-13.23h4.2c0.33 0 0.59-0.09 0.8-0.28 0.22-0.19 0.33-0.45 0.33-0.78s-0.11-0.59-0.33-0.78c-0.21-0.2-0.47-0.3-0.8-0.3h-10.78zm59.06 0c-0.31 0-0.58 0.11-0.8 0.33s-0.33 0.48-0.33 0.8v14.24c0 0.33 0.09 0.61 0.28 0.83 0.21 0.2 0.47 0.31 0.8 0.31 0.32 0 0.58-0.11 0.78-0.33 0.21-0.22 0.31-0.49 0.31-0.81v-5.21h4.43c0.83 0 1.61-0.23 2.31-0.68 0.71-0.46 1.27-1.08 1.68-1.87 0.42-0.78 0.63-1.64 0.63-2.57 0-0.92-0.21-1.77-0.63-2.54-0.41-0.77-0.97-1.38-1.68-1.82-0.7-0.46-1.48-0.68-2.31-0.68h-5.47zm-284.05 1.18c-0.33 0-0.6 0.11-0.82 0.33-0.21 0.22-0.31 0.48-0.31 0.8v1.98h-1.37c-0.3 0-0.55 0.09-0.75 0.28-0.19 0.19-0.28 0.43-0.28 0.73s0.09 0.55 0.28 0.76c0.2 0.19 0.45 0.28 0.75 0.28h1.37v7.12c0 0.92 0.17 1.6 0.5 2.06 0.34 0.44 0.73 0.71 1.15 0.82 0.44 0.11 0.92 0.17 1.44 0.17 0.47 0 0.9-0.12 1.28-0.36 0.37-0.23 0.56-0.52 0.56-0.85 0-0.26-0.07-0.48-0.21-0.66-0.14-0.17-0.32-0.26-0.52-0.26-0.11 0-0.26 0.03-0.45 0.1-0.19 0.04-0.34 0.07-0.45 0.07-0.7 0-1.06-0.39-1.06-1.18v-7.03h1.96c0.3 0 0.54-0.09 0.73-0.28 0.21-0.19 0.31-0.43 0.31-0.73s-0.1-0.54-0.31-0.73c-0.19-0.21-0.43-0.31-0.73-0.31h-1.96v-1.98c0-0.32-0.11-0.58-0.33-0.8-0.2-0.22-0.46-0.33-0.78-0.33zm267.88 0c-0.33 0-0.61 0.11-0.83 0.33-0.2 0.22-0.3 0.48-0.3 0.8v1.98h-1.37c-0.3 0-0.55 0.09-0.76 0.28-0.19 0.19-0.28 0.43-0.28 0.73s0.09 0.55 0.28 0.76c0.21 0.19 0.46 0.28 0.76 0.28h1.37v7.12c0 0.92 0.16 1.6 0.49 2.06 0.35 0.44 0.73 0.71 1.16 0.82 0.44 0.11 0.91 0.17 1.43 0.17 0.48 0 0.9-0.12 1.28-0.36 0.38-0.23 0.56-0.52 0.56-0.85 0-0.26-0.07-0.48-0.21-0.66-0.14-0.17-0.31-0.26-0.52-0.26-0.11 0-0.26 0.03-0.44 0.1-0.19 0.04-0.34 0.07-0.45 0.07-0.71 0-1.06-0.39-1.06-1.18v-7.03h1.95c0.3 0 0.54-0.09 0.73-0.28 0.21-0.19 0.31-0.43 0.31-0.73s-0.1-0.54-0.31-0.73c-0.19-0.21-0.43-0.31-0.73-0.31h-1.95v-1.98c0-0.32-0.11-0.58-0.33-0.8-0.21-0.22-0.47-0.33-0.78-0.33zm56.01 0c-0.33 0-0.6 0.11-0.82 0.33-0.21 0.22-0.31 0.48-0.31 0.8v1.98h-1.37c-0.3 0-0.55 0.09-0.75 0.28-0.19 0.19-0.29 0.43-0.29 0.73s0.1 0.55 0.29 0.76c0.2 0.19 0.45 0.28 0.75 0.28h1.37v7.12c0 0.92 0.17 1.6 0.5 2.06 0.34 0.44 0.73 0.71 1.15 0.82 0.44 0.11 0.92 0.17 1.44 0.17 0.47 0 0.9-0.12 1.27-0.36 0.38-0.23 0.57-0.52 0.57-0.85 0-0.26-0.07-0.48-0.21-0.66-0.14-0.17-0.32-0.26-0.52-0.26-0.11 0-0.26 0.03-0.45 0.1-0.19 0.04-0.34 0.07-0.45 0.07-0.71 0-1.06-0.39-1.06-1.18v-7.03h1.96c0.3 0 0.54-0.09 0.73-0.28 0.21-0.19 0.31-0.43 0.31-0.73s-0.1-0.54-0.31-0.73c-0.19-0.21-0.43-0.31-0.73-0.31h-1.96v-1.98c0-0.32-0.11-0.58-0.33-0.8-0.2-0.22-0.46-0.33-0.78-0.33zm-38.8 0.99h4.43c0.65 0 1.2 0.28 1.65 0.84 0.47 0.56 0.71 1.23 0.71 2.03 0 0.52-0.11 1.01-0.33 1.47-0.2 0.45-0.49 0.82-0.85 1.1-0.36 0.27-0.75 0.41-1.18 0.41h-4.43v-5.85zm-81.03 0.04h4.46c0.72 0 1.28 0.2 1.67 0.59 0.41 0.38 0.62 0.94 0.62 1.68s-0.21 1.31-0.64 1.72c-0.42 0.39-0.96 0.6-1.6 0.61h-4.51v-4.6zm-27.91 1.39l2.76 6.61h-5.49l2.73-6.61zm-204.27 0.26c-1.02 0-1.98 0.27-2.88 0.81-0.88 0.53-1.59 1.3-2.15 2.31-0.53 0.99-0.8 2.14-0.8 3.46 0 1.22 0.26 2.3 0.78 3.26 0.54 0.96 1.28 1.71 2.24 2.24 0.98 0.54 2.1 0.8 3.37 0.8 0.79 0 1.56-0.15 2.32-0.47 0.75-0.31 1.36-0.7 1.81-1.16 0.32-0.26 0.47-0.56 0.47-0.89 0-0.25-0.09-0.47-0.28-0.66-0.17-0.19-0.39-0.29-0.66-0.29-0.22 0-0.45 0.08-0.68 0.22-0.37 0.34-0.78 0.63-1.25 0.85-0.48 0.22-1.09 0.33-1.84 0.33-1.11 0-2.04-0.35-2.81-1.04-0.76-0.69-1.19-1.61-1.3-2.76h8.3c0.3 0 0.56-0.09 0.78-0.28 0.22-0.21 0.34-0.45 0.36-0.74-0.02-1.13-0.29-2.15-0.83-3.06-0.53-0.91-1.24-1.63-2.12-2.15s-1.83-0.78-2.83-0.78zm14.83 0c-1.04 0-1.99 0.28-2.86 0.83-0.86 0.55-1.55 1.32-2.05 2.31-0.49 0.98-0.73 2.08-0.73 3.3 0 1.23 0.24 2.34 0.73 3.33 0.5 0.97 1.19 1.74 2.05 2.29 0.88 0.55 1.86 0.82 2.93 0.82 0.81 0 1.58-0.19 2.29-0.56 0.7-0.4 1.26-0.87 1.67-1.42v0.61c0 0.33 0.1 0.61 0.31 0.83 0.2 0.2 0.47 0.31 0.8 0.31s0.6-0.11 0.8-0.33c0.22-0.22 0.33-0.49 0.33-0.81v-10.23c0-0.35-0.11-0.62-0.33-0.83-0.2-0.22-0.47-0.33-0.8-0.33s-0.6 0.11-0.8 0.33c-0.21 0.22-0.31 0.5-0.31 0.83v0.56c-0.42-0.53-1-0.97-1.72-1.32-0.71-0.34-1.48-0.52-2.31-0.52zm42.82 0c-0.88 0.02-1.66 0.27-2.36 0.76-0.69 0.47-1.21 1.09-1.55 1.86v-1.2c0-0.31-0.11-0.58-0.33-0.8-0.21-0.22-0.48-0.33-0.81-0.33-0.31 0-0.58 0.11-0.8 0.33-0.2 0.22-0.3 0.49-0.3 0.8v10.09c0 0.33 0.1 0.61 0.3 0.83 0.21 0.2 0.47 0.31 0.8 0.31s0.6-0.11 0.81-0.33c0.22-0.22 0.33-0.49 0.33-0.81v-5.68c0-0.72 0.14-1.37 0.42-1.96 0.3-0.59 0.68-1.06 1.13-1.39 0.47-0.35 0.96-0.52 1.44-0.52 0.19 0 0.45 0.06 0.78 0.17 0.28 0.09 0.5 0.14 0.64 0.14 0.28 0 0.52-0.09 0.7-0.28 0.21-0.21 0.31-0.5 0.31-0.88 0-0.31-0.15-0.57-0.45-0.78-0.3-0.22-0.65-0.33-1.06-0.33zm9.6 0c-1.02 0-1.98 0.27-2.87 0.81-0.88 0.53-1.6 1.3-2.15 2.31-0.53 0.99-0.8 2.14-0.8 3.46 0 1.22 0.26 2.3 0.78 3.26 0.53 0.96 1.28 1.71 2.24 2.24 0.97 0.54 2.1 0.8 3.37 0.8 0.79 0 1.56-0.15 2.31-0.47 0.76-0.31 1.36-0.7 1.82-1.16 0.31-0.26 0.47-0.56 0.47-0.89 0-0.25-0.09-0.47-0.28-0.66-0.18-0.19-0.4-0.29-0.66-0.29-0.22 0-0.45 0.08-0.69 0.22-0.36 0.34-0.78 0.63-1.25 0.85s-1.08 0.33-1.84 0.33c-1.1 0-2.03-0.35-2.81-1.04-0.75-0.69-1.18-1.61-1.29-2.76h8.3c0.3 0 0.56-0.09 0.78-0.28 0.22-0.21 0.34-0.45 0.35-0.74-0.01-1.13-0.29-2.15-0.82-3.06-0.54-0.91-1.25-1.63-2.13-2.15s-1.82-0.78-2.83-0.78zm43.53 0c-1.04 0-1.99 0.28-2.85 0.83-0.87 0.55-1.55 1.32-2.05 2.31-0.49 0.98-0.74 2.08-0.74 3.3 0 1.23 0.25 2.34 0.74 3.33 0.5 0.97 1.18 1.74 2.05 2.29 0.88 0.55 1.85 0.82 2.92 0.82 0.82 0 1.58-0.19 2.29-0.56 0.71-0.4 1.27-0.87 1.67-1.42v0.61c0 0.33 0.11 0.61 0.31 0.83 0.21 0.2 0.47 0.31 0.8 0.31s0.6-0.11 0.8-0.33c0.23-0.22 0.34-0.49 0.34-0.81v-10.23c0-0.35-0.11-0.62-0.34-0.83-0.2-0.22-0.47-0.33-0.8-0.33s-0.59 0.11-0.8 0.33c-0.2 0.22-0.31 0.5-0.31 0.83v0.56c-0.42-0.53-0.99-0.97-1.72-1.32-0.7-0.34-1.48-0.52-2.31-0.52zm16.11 0c-1.07 0-2.06 0.28-2.95 0.83-0.88 0.55-1.58 1.32-2.1 2.31-0.5 0.98-0.76 2.08-0.76 3.3 0 1.23 0.26 2.34 0.76 3.33 0.52 0.97 1.23 1.74 2.12 2.29 0.9 0.55 1.89 0.82 2.97 0.82 0.87 0 1.68-0.22 2.46-0.66s1.34-0.97 1.67-1.58v1.28c0 1.05-0.34 1.87-1.01 2.47-0.66 0.61-1.62 0.92-2.88 0.92-0.71 0-1.69-0.24-2.95-0.73-0.23-0.09-0.45-0.14-0.66-0.14-0.41 0-0.7 0.2-0.87 0.59-0.07 0.16-0.1 0.28-0.1 0.38 0 0.37 0.25 0.69 0.73 0.94 0.24 0.24 0.77 0.46 1.61 0.68 0.85 0.22 1.59 0.33 2.21 0.33 1.17 0 2.21-0.2 3.14-0.61s1.66-1.04 2.19-1.91c0.56-0.85 0.83-1.91 0.83-3.18v-10.38c0-0.35-0.11-0.62-0.33-0.83-0.2-0.22-0.47-0.33-0.8-0.33s-0.6 0.11-0.8 0.33c-0.21 0.22-0.31 0.5-0.31 0.83v0.75c-0.42-0.56-1.01-1.04-1.77-1.44-0.74-0.39-1.54-0.59-2.4-0.59zm22.63 0c-1.03 0-1.98 0.28-2.85 0.83-0.86 0.55-1.55 1.32-2.05 2.31-0.49 0.98-0.73 2.08-0.73 3.3 0 1.23 0.24 2.34 0.73 3.33 0.5 0.97 1.19 1.74 2.05 2.29 0.88 0.55 1.85 0.82 2.92 0.82 0.82 0 1.58-0.19 2.29-0.56 0.71-0.4 1.27-0.87 1.68-1.42v0.61c0 0.33 0.1 0.61 0.3 0.83 0.21 0.2 0.47 0.31 0.8 0.31s0.6-0.11 0.81-0.33c0.22-0.22 0.33-0.49 0.33-0.81v-10.23c0-0.35-0.11-0.62-0.33-0.83-0.21-0.22-0.48-0.33-0.81-0.33s-0.59 0.11-0.8 0.33c-0.2 0.22-0.3 0.5-0.3 0.83v0.56c-0.43-0.53-1-0.97-1.73-1.32-0.7-0.34-1.47-0.52-2.31-0.52zm17.36 0c-0.84 0-1.62 0.22-2.36 0.66-0.73 0.43-1.29 0.96-1.7 1.58v-0.82c0-0.31-0.11-0.58-0.33-0.8-0.2-0.22-0.47-0.33-0.8-0.33-0.32 0-0.58 0.11-0.8 0.33-0.21 0.22-0.31 0.49-0.31 0.8v10.09c0 0.33 0.1 0.61 0.31 0.83 0.2 0.2 0.47 0.31 0.8 0.31s0.6-0.11 0.8-0.33c0.22-0.22 0.33-0.49 0.33-0.81v-6.39c0-0.55 0.14-1.05 0.42-1.51 0.3-0.47 0.7-0.84 1.21-1.11 0.52-0.28 1.09-0.42 1.72-0.42 0.96 0 1.65 0.28 2.07 0.83 0.43 0.55 0.64 1.29 0.64 2.21v6.39c0 0.32 0.1 0.59 0.31 0.81 0.22 0.22 0.49 0.33 0.8 0.33 0.33 0 0.6-0.11 0.8-0.33 0.22-0.22 0.33-0.49 0.33-0.81v-6.41c0-3.4-1.41-5.1-4.24-5.1zm104.31 0c-1.02 0-1.98 0.27-2.88 0.81-0.88 0.53-1.6 1.3-2.15 2.31-0.53 0.99-0.8 2.14-0.8 3.46 0 1.22 0.26 2.3 0.78 3.26 0.54 0.96 1.28 1.71 2.24 2.24 0.98 0.54 2.1 0.8 3.37 0.8 0.79 0 1.56-0.15 2.31-0.47 0.76-0.31 1.37-0.7 1.82-1.16 0.32-0.26 0.47-0.56 0.47-0.89 0-0.25-0.09-0.47-0.28-0.66-0.17-0.19-0.39-0.29-0.66-0.29-0.22 0-0.45 0.08-0.69 0.22-0.36 0.34-0.77 0.63-1.25 0.85-0.47 0.22-1.08 0.33-1.83 0.33-1.11 0-2.04-0.35-2.81-1.04-0.76-0.69-1.19-1.61-1.3-2.76h8.3c0.3 0 0.56-0.09 0.78-0.28 0.22-0.21 0.34-0.45 0.36-0.74-0.02-1.13-0.29-2.15-0.83-3.06-0.53-0.91-1.24-1.63-2.12-2.15s-1.83-0.78-2.83-0.78zm13.86 0c-0.79 0-1.52 0.15-2.19 0.45-0.66 0.3-1.2 0.72-1.61 1.25-0.39 0.54-0.59 1.16-0.59 1.87 0 0.8 0.2 1.45 0.59 1.95 0.41 0.49 0.91 0.87 1.49 1.14 0.58 0.25 1.31 0.49 2.19 0.73 0.9 0.23 1.58 0.49 2.03 0.77 0.47 0.29 0.71 0.7 0.71 1.23 0 0.58-0.23 1.01-0.69 1.27-0.45 0.26-0.98 0.39-1.58 0.41-0.75 0-1.4-0.14-1.95-0.41-0.54-0.26-1.04-0.66-1.51-1.2-0.24-0.23-0.5-0.35-0.78-0.35-0.2 0-0.39 0.05-0.54 0.16-0.33 0.22-0.5 0.49-0.5 0.81 0 0.2 0.07 0.41 0.21 0.63 0.59 0.76 1.29 1.31 2.13 1.65 0.85 0.35 1.77 0.52 2.76 0.52 0.77 0 1.49-0.14 2.17-0.42 0.69-0.3 1.25-0.72 1.67-1.25 0.43-0.55 0.64-1.2 0.64-1.94 0-0.8-0.19-1.44-0.57-1.93-0.38-0.5-0.84-0.88-1.39-1.13s-1.24-0.49-2.08-0.71c-0.95-0.25-1.67-0.51-2.14-0.78-0.46-0.27-0.69-0.68-0.71-1.23 0-0.58 0.21-0.99 0.61-1.22 0.43-0.25 0.94-0.38 1.54-0.38 0.58 0 1.11 0.1 1.58 0.31 0.48 0.2 0.89 0.49 1.22 0.87 0.18 0.19 0.4 0.28 0.69 0.28 0.23 0 0.43-0.07 0.59-0.21 0.25-0.23 0.37-0.48 0.37-0.73 0-0.24-0.09-0.46-0.28-0.68-0.47-0.58-1.08-1.02-1.84-1.3-0.74-0.28-1.48-0.43-2.24-0.43zm53.67 0c-1.04 0-1.99 0.28-2.86 0.83-0.86 0.55-1.55 1.32-2.05 2.31-0.49 0.98-0.73 2.08-0.73 3.3 0 1.23 0.24 2.34 0.73 3.33 0.5 0.97 1.19 1.74 2.05 2.29 0.88 0.55 1.86 0.82 2.93 0.82 0.81 0 1.58-0.19 2.28-0.56 0.71-0.4 1.27-0.87 1.68-1.42v0.61c0 0.33 0.1 0.61 0.31 0.83 0.2 0.2 0.47 0.31 0.8 0.31s0.59-0.11 0.8-0.33c0.22-0.22 0.33-0.49 0.33-0.81v-10.23c0-0.35-0.11-0.62-0.33-0.83-0.21-0.22-0.47-0.33-0.8-0.33s-0.6 0.11-0.8 0.33c-0.21 0.22-0.31 0.5-0.31 0.83v0.56c-0.43-0.53-1-0.97-1.72-1.32-0.71-0.34-1.48-0.52-2.31-0.52zm37.07 0c-1.15 0-2.2 0.28-3.16 0.83-0.94 0.55-1.69 1.32-2.24 2.31s-0.83 2.1-0.83 3.33c0 1.22 0.28 2.33 0.83 3.3s1.3 1.74 2.24 2.29c0.96 0.55 2.01 0.82 3.16 0.82s2.19-0.27 3.14-0.82c0.96-0.55 1.71-1.32 2.26-2.29s0.83-2.08 0.83-3.3c0-1.23-0.28-2.34-0.83-3.33s-1.3-1.76-2.26-2.31c-0.95-0.55-1.99-0.83-3.14-0.83zm16.44 0c-0.88 0.02-1.67 0.27-2.36 0.76-0.69 0.47-1.21 1.09-1.56 1.86v-1.2c0-0.31-0.11-0.58-0.33-0.8-0.2-0.22-0.47-0.33-0.8-0.33-0.31 0-0.58 0.11-0.8 0.33-0.21 0.22-0.31 0.49-0.31 0.8v10.09c0 0.33 0.1 0.61 0.31 0.83 0.2 0.2 0.47 0.31 0.8 0.31s0.6-0.11 0.8-0.33c0.22-0.22 0.33-0.49 0.33-0.81v-5.68c0-0.72 0.14-1.37 0.43-1.96 0.3-0.59 0.67-1.06 1.13-1.39 0.47-0.35 0.95-0.52 1.44-0.52 0.19 0 0.45 0.06 0.78 0.17 0.28 0.09 0.49 0.14 0.63 0.14 0.29 0 0.52-0.09 0.71-0.28 0.2-0.21 0.31-0.5 0.31-0.88 0-0.31-0.15-0.57-0.45-0.78-0.3-0.22-0.65-0.33-1.06-0.33zm11.15 0.07c-0.81 0-1.56 0.22-2.25 0.64-0.67 0.41-1.22 0.92-1.62 1.53v-0.82c0-0.31-0.11-0.58-0.33-0.8-0.21-0.22-0.47-0.33-0.8-0.33-0.32 0-0.59 0.11-0.81 0.33-0.2 0.22-0.3 0.49-0.3 0.8v10.09c0 0.33 0.1 0.61 0.3 0.83 0.21 0.2 0.48 0.31 0.81 0.31s0.59-0.11 0.8-0.33c0.22-0.22 0.33-0.49 0.33-0.81v-6.29c0-0.87 0.3-1.59 0.89-2.17 0.62-0.6 1.39-0.9 2.32-0.9 0.91 0 1.56 0.28 1.95 0.85 0.4 0.55 0.59 1.29 0.59 2.22v6.29c0 0.33 0.1 0.61 0.31 0.83 0.2 0.2 0.47 0.31 0.8 0.31s0.6-0.11 0.8-0.33c0.22-0.22 0.33-0.49 0.33-0.81v-6.27c0-0.57 0.14-1.08 0.4-1.56 0.29-0.47 0.67-0.84 1.16-1.11 0.5-0.28 1.06-0.42 1.67-0.42 1.73 0 2.6 1.03 2.6 3.09v6.27c0 0.32 0.1 0.59 0.31 0.81 0.22 0.22 0.49 0.33 0.82 0.33s0.6-0.11 0.8-0.31c0.21-0.22 0.31-0.5 0.31-0.83v-6.29c0-3.43-1.38-5.15-4.13-5.15-0.89 0-1.75 0.27-2.55 0.81-0.8 0.53-1.37 1.13-1.72 1.79-0.58-1.73-1.84-2.6-3.79-2.6zm-365.93 0.22c-0.31 0-0.58 0.11-0.8 0.33-0.21 0.22-0.31 0.49-0.31 0.8v6.27c0 1.64 0.45 2.91 1.34 3.82 0.9 0.9 2.17 1.35 3.8 1.35 1.65 0 2.93-0.45 3.82-1.35 0.92-0.91 1.37-2.18 1.37-3.82v-6.27c0-0.31-0.11-0.58-0.33-0.8-0.2-0.22-0.47-0.33-0.8-0.33-0.32 0-0.58 0.11-0.8 0.33-0.21 0.22-0.31 0.49-0.31 0.8v6.27c0 1.03-0.25 1.8-0.75 2.31-0.51 0.52-1.24 0.78-2.2 0.78-1.93 0-2.9-1.03-2.9-3.09v-6.27c0-0.31-0.11-0.58-0.33-0.8-0.2-0.22-0.47-0.33-0.8-0.33zm-37.45 1.79c0.85 0 1.6 0.27 2.26 0.8 0.68 0.54 1.06 1.22 1.13 2.05v0.19h-6.95c0.2-1.03 0.62-1.8 1.27-2.29 0.64-0.5 1.41-0.75 2.29-0.75zm15.16 0c0.74 0 1.39 0.2 1.96 0.59 0.58 0.38 1.02 0.9 1.34 1.56 0.33 0.66 0.49 1.4 0.49 2.21 0 0.84-0.16 1.58-0.49 2.24-0.32 0.66-0.76 1.18-1.34 1.56-0.57 0.38-1.22 0.57-1.96 0.57s-1.4-0.19-1.98-0.57c-0.57-0.38-1.02-0.9-1.35-1.56-0.31-0.66-0.47-1.4-0.47-2.24 0-0.83 0.16-1.58 0.47-2.24 0.33-0.66 0.78-1.18 1.35-1.55 0.58-0.38 1.24-0.57 1.98-0.57zm52.09 0c0.85 0 1.61 0.27 2.27 0.8 0.67 0.54 1.05 1.22 1.13 2.05v0.19h-6.96c0.21-1.03 0.63-1.8 1.28-2.29 0.64-0.5 1.4-0.75 2.28-0.75zm43.86 0c0.74 0 1.39 0.2 1.96 0.59 0.58 0.38 1.03 0.9 1.34 1.56 0.33 0.66 0.5 1.4 0.5 2.21 0 0.84-0.17 1.58-0.5 2.24-0.31 0.66-0.76 1.18-1.34 1.56-0.57 0.38-1.22 0.57-1.96 0.57s-1.4-0.19-1.98-0.57c-0.56-0.38-1.01-0.9-1.34-1.56-0.32-0.66-0.48-1.4-0.48-2.24 0-0.83 0.16-1.58 0.48-2.24 0.33-0.66 0.78-1.18 1.34-1.55 0.58-0.38 1.24-0.57 1.98-0.57zm16.08 0c0.77 0 1.46 0.19 2.05 0.57 0.6 0.37 1.06 0.89 1.4 1.55s0.51 1.41 0.51 2.24c0 0.84-0.17 1.59-0.51 2.27-0.34 0.66-0.8 1.18-1.4 1.55-0.59 0.37-1.28 0.55-2.05 0.55-0.75 0-1.43-0.19-2.03-0.57-0.59-0.38-1.07-0.9-1.41-1.56-0.33-0.67-0.5-1.42-0.5-2.24 0-0.81 0.17-1.55 0.5-2.21 0.34-0.68 0.82-1.21 1.41-1.58 0.6-0.38 1.28-0.57 2.03-0.57zm22.66 0c0.74 0 1.39 0.2 1.96 0.59 0.58 0.38 1.03 0.9 1.34 1.56 0.33 0.66 0.5 1.4 0.5 2.21 0 0.84-0.17 1.58-0.5 2.24-0.31 0.66-0.76 1.18-1.34 1.56-0.57 0.38-1.22 0.57-1.96 0.57s-1.4-0.19-1.98-0.57c-0.56-0.38-1.01-0.9-1.34-1.56-0.32-0.66-0.47-1.4-0.47-2.24 0-0.83 0.15-1.58 0.47-2.24 0.33-0.66 0.78-1.18 1.34-1.55 0.58-0.38 1.24-0.57 1.98-0.57zm31.33 0c0.74 0 1.39 0.19 1.96 0.57 0.58 0.37 1.03 0.9 1.34 1.58 0.33 0.66 0.49 1.4 0.49 2.21 0 0.84-0.16 1.58-0.49 2.24-0.31 0.66-0.76 1.18-1.34 1.56-0.57 0.38-1.22 0.57-1.96 0.57s-1.4-0.19-1.98-0.57c-0.57-0.38-1.02-0.9-1.35-1.56-0.31-0.66-0.47-1.4-0.47-2.24 0-0.81 0.16-1.55 0.47-2.21 0.33-0.68 0.78-1.21 1.35-1.58 0.58-0.38 1.24-0.57 1.98-0.57zm90.01 0c0.85 0 1.6 0.27 2.26 0.8 0.68 0.54 1.06 1.22 1.13 2.05v0.19h-6.95c0.2-1.03 0.62-1.8 1.27-2.29 0.64-0.5 1.41-0.75 2.29-0.75zm67.86 0c0.73 0 1.39 0.2 1.95 0.59 0.59 0.38 1.03 0.9 1.35 1.56 0.33 0.66 0.49 1.4 0.49 2.21 0 0.84-0.16 1.58-0.49 2.24-0.32 0.66-0.76 1.18-1.35 1.56-0.56 0.38-1.22 0.57-1.95 0.57-0.74 0-1.4-0.19-1.99-0.57-0.56-0.38-1.01-0.9-1.34-1.56-0.31-0.66-0.47-1.4-0.47-2.24 0-0.83 0.16-1.58 0.47-2.24 0.33-0.66 0.78-1.18 1.34-1.55 0.59-0.38 1.25-0.57 1.99-0.57zm36.74 0c0.74 0 1.41 0.19 2 0.57 0.62 0.36 1.1 0.88 1.44 1.55 0.36 0.66 0.55 1.42 0.55 2.27 0 0.83-0.19 1.58-0.55 2.24-0.34 0.66-0.82 1.18-1.44 1.55-0.59 0.37-1.26 0.55-2 0.55s-1.42-0.18-2.03-0.55c-0.6-0.37-1.08-0.89-1.44-1.55-0.34-0.66-0.52-1.41-0.52-2.24 0-0.85 0.18-1.61 0.52-2.27 0.36-0.67 0.84-1.19 1.44-1.55 0.61-0.38 1.29-0.57 2.03-0.57zm-143.61 3.09h4.65c1.98 0 2.97 0.87 2.97 2.62 0 0.89-0.26 1.57-0.78 2.03-0.52 0.44-1.21 0.66-2.07 0.66h-4.77v-5.31z" /></clipPath></defs><path
     stroke-linecap="round"
     stroke-linejoin="round"
     fill-rule="nonzero"
     stroke-width="50"
     stroke="#36363f"
     fill="none"
     clip-path="url(#clip)"
     d="m420.09 320.74c-6.78 0-13.17 1.85-17.88 5.58-4.72 3.74-7.74 9.37-7.74 16.72 0 11.37 5.89 19.61 16.3 24.3l0.66 0.3 1.85-5.05-0.56-0.26c-7.3-3.35-12.88-9.06-12.88-19.29 0-5.67 2.25-9.83 5.89-12.65 3.64-2.83 8.73-4.28 14.36-4.28 8.38 0 11.65 1.1 15.62 2.86l-1.56 4.29c-4.93-1.99-9.42-3.01-14.02-3.01-5.46 0-9.37 1.51-11.91 3.89-2.53 2.38-3.66 5.59-3.66 8.85 0 4.85 1.56 8.28 3.89 10.85 2.32 2.56 5.38 4.27 8.39 5.89 3.07 1.67 6.09 3.11 8.3 5.2 2.2 2.1 3.65 4.81 3.65 9.3 0 2.52-0.93 4.15-2.82 5.3-1.88 1.14-4.8 1.72-8.62 1.72-6.36 0-13.35-2.63-19.88-6.07l-0.67-0.35-5.38 14.28 0.52 0.27c7.27 3.93 15.14 6.76 25.41 6.76 7.72 0 14.43-1.82 19.24-5.49 4.81-3.68 7.67-9.23 7.67-16.42 0-6.75-1.75-12.29-5.12-16.78-3.36-4.48-8.32-7.89-14.67-10.47l-0.65-0.26-0.23 0.66-1.56 4.4 0.59 0.24c5.69 2.34 9.74 5.27 12.38 8.9s3.89 7.99 3.89 13.31c0 6.25-2.6 10.29-6.59 12.88-3.98 2.59-9.42 3.66-14.95 3.66-6.83 0-12.72-1.32-19.2-4.31l1.61-4.26c6.38 2.89 12.31 4.43 17.59 4.43 7.15 0 11.41-1.89 13.84-4.43 2.43-2.55 2.97-5.68 2.97-7.97 0-5.87-2-9.83-4.85-12.71-2.84-2.87-6.49-4.68-9.82-6.48-2.62-1.42-5.03-2.71-6.75-4.48-1.72-1.78-2.8-4.01-2.8-7.57 0-2.39 0.82-4.15 2.48-5.39 1.66-1.25 4.22-1.97 7.71-1.97 5.5 0 10.57 1.59 16.38 4.58l0.67 0.35 5.27-14.34-0.53-0.27c-6.06-3.08-10.55-5.21-21.83-5.21zm-164.09 1.05v14.89h14.07v-5.37h-8.7v-4.14h13.42v67.97h15.47v-67.97h13.37v4.14h-8.65v5.37h14.03v-14.89h-24.12v0.67 67.3h-4.72v-67.97h-24.17zm72.85 0v73.35h45.89v-14.9h-30.43v-25.63h23.28v4.15h-18.56v5.37h23.93v-14.89h-34.02v36.38h30.43v4.14h-35.15v-62.59h34.48v4.14h-29.76v13.79h5.37v-8.42h29.76v-14.89h-45.22zm131.61 0v14.89h14.07v-5.37h-8.7v-4.14h13.42v67.97h15.47v-67.97h13.37v4.14h-8.65v5.37h14.02v-14.89h-24.12v0.67 67.3h-4.72v-67.97h-24.16zm108.7 0v63.83h35.77v4.14h-35.77v5.38h41.14v-14.9h-35.76v-53.07h4.72v48.93h5.37v-54.31h-15.47zm145.54 0v32.78h26.05c4.15 0 7.54-1.1 9.89-3.23 2.36-2.13 3.61-5.28 3.61-9.17 0-2.56-0.93-5.3-3.15-7.39-2.23-2.08-5.71-3.47-10.69-3.47h-15.61v13.74h5.37v-8.37h10.24c2.61 0 4.77 0.51 6.23 1.44 1.45 0.93 2.24 2.21 2.24 4.05 0 2.38-0.64 4.08-1.88 5.23s-3.16 1.79-5.86 1.79h-21.06v-22.02h21.1c11.26 0 17.6 6.98 17.6 14.13 0 7.96-3.74 11.64-6.81 14.04l-0.89 0.7 1.04 0.44c6.36 2.72 10.51 7.68 10.51 16.45 0 9-6.54 16.83-19.04 16.83h-23.51v-25.72h22.54c3.5 0 5.96 1.02 7.55 2.54 1.6 1.52 2.36 3.58 2.36 5.78 0 2.15-0.62 4.1-2 5.52-1.37 1.42-3.52 2.36-6.75 2.36h-13.61v-12.06h-5.37v17.44h18.98c4.76 0 8.33-1.58 10.67-4.06 2.35-2.47 3.46-5.79 3.46-9.2 0-3.87-1.49-7.33-4.16-9.78-2.66-2.46-6.49-3.92-11.13-3.92h-27.92v36.48h28.89c14.95 0 24.41-9.95 24.41-22.21 0-7.98-2.99-13.96-8.12-17.98 2.92-3.87 4.27-8.78 4.27-13.65 0-10-8.73-19.51-22.97-19.51h-26.48zm-65.63 1.85v7.21h2.4v14.05l-14.42 21.62-14.41 21.62v7.57h72.07v-7.57l-14.42-21.62-14.41-21.62v-14.05h2.4v-7.2l-9.6-0.01h-9.61zm2.4 2.4h7.21 7.2v2.41h-2.4v17.17l7.89 11.83 7.88 11.83h-41.16l7.89-11.83 7.89-11.83v-17.17h-2.4v-2.41zm10.73 29.81c-0.01 0-0.45 0.44-0.99 0.98l-0.98 0.98 0.36 1.33c0.2 0.74 0.37 1.34 0.37 1.35 0 0 0.6 0.16 1.32 0.36 0.73 0.19 1.33 0.35 1.34 0.35 0.02 0 0.47-0.44 1-0.98l0.98-0.97-0.36-1.33c-0.2-0.74-0.36-1.34-0.37-1.34 0-0.01-0.61-0.18-1.34-0.37-0.73-0.2-1.33-0.36-1.33-0.36zm-10.19 3.41c-0.01 0-0.45 0.44-0.99 0.98l-0.98 0.97 0.36 1.34c0.2 0.74 0.37 1.34 0.37 1.34 0 0.01 0.6 0.17 1.34 0.36l1.33 0.36 0.97-0.98c0.54-0.54 0.98-0.99 0.98-1s-0.16-0.61-0.35-1.33-0.36-1.31-0.37-1.32c0-0.01-0.6-0.17-1.33-0.37-0.72-0.19-1.32-0.34-1.33-0.34v-0.01zm-15.51 12.43h22.18 22.18l0.8 1.2 0.8 1.2h-47.56l0.8-1.2 0.8-1.2zm-3.21 4.8h25.39 25.38l0.8 1.2 0.8 1.2h-53.97l0.8-1.2 0.8-1.2zm-3.2 4.8h28.59 28.58l0.8 1.21 0.8 1.2h-60.38l0.81-1.2 0.8-1.21zm-3.2 4.81h31.79 31.78l0.8 1.2 0.8 1.2h-66.77l0.8-1.2 0.8-1.2zm-1.85 4.8h33.64 33.62v2.41h-67.26v-2.41zm-86.4 32.78c-0.4 0-0.7 0.21-0.92 0.63l-9.89 19.91c-0.07 0.19-0.11 0.35-0.11 0.47 0 0.27 0.1 0.5 0.3 0.69 0.22 0.19 0.46 0.28 0.71 0.28 0.41 0 0.71-0.2 0.9-0.61l9.86-19.91c0.07-0.16 0.11-0.33 0.11-0.52 0-0.27-0.1-0.49-0.3-0.66-0.21-0.19-0.43-0.28-0.66-0.28zm-125.06 1.41c-0.32 0-0.58 0.11-0.8 0.33s-0.33 0.49-0.33 0.8v15.19c0 0.32 0.1 0.59 0.3 0.81 0.22 0.22 0.49 0.33 0.8 0.33 0.32 0 0.59-0.11 0.81-0.33s0.33-0.49 0.33-0.81v-15.19c0-0.31-0.11-0.58-0.33-0.8-0.21-0.22-0.47-0.33-0.78-0.33zm86.23 0c-0.33 0-0.6 0.11-0.8 0.33-0.21 0.21-0.31 0.47-0.31 0.8v5.55c-0.44-0.55-1.01-1-1.72-1.35-0.71-0.34-1.48-0.52-2.31-0.52-1.04 0-1.99 0.28-2.86 0.83-0.86 0.55-1.55 1.32-2.05 2.31-0.49 0.98-0.73 2.08-0.73 3.3 0 1.23 0.25 2.34 0.76 3.33 0.5 0.97 1.18 1.74 2.05 2.29 0.86 0.55 1.83 0.82 2.9 0.82 0.82 0 1.58-0.19 2.29-0.59 0.72-0.39 1.28-0.87 1.67-1.44v0.66c0 0.33 0.1 0.61 0.31 0.83 0.2 0.2 0.47 0.31 0.8 0.31s0.6-0.11 0.8-0.33c0.22-0.22 0.33-0.49 0.33-0.81v-15.19c0-0.33-0.11-0.59-0.33-0.8-0.2-0.22-0.47-0.33-0.8-0.33zm141.7 0c-0.31 0-0.58 0.11-0.8 0.33s-0.33 0.49-0.33 0.8v15.19c0 0.32 0.1 0.59 0.31 0.81 0.22 0.22 0.48 0.33 0.8 0.33 0.31 0 0.58-0.11 0.8-0.33s0.33-0.49 0.33-0.81v-15.19c0-0.31-0.11-0.58-0.33-0.8-0.21-0.22-0.46-0.33-0.78-0.33zm37.53 0.05c-1.29 0-2.29 0.33-3 0.99-0.7 0.65-1.06 1.52-1.06 2.62v1.65h-1.46c-0.3 0-0.55 0.1-0.75 0.31-0.21 0.19-0.31 0.43-0.31 0.73s0.1 0.54 0.31 0.73c0.2 0.19 0.45 0.28 0.75 0.28h1.46v8.96c0 0.32 0.1 0.59 0.31 0.81 0.22 0.22 0.49 0.33 0.8 0.33 0.33 0 0.6-0.11 0.8-0.33 0.22-0.22 0.33-0.49 0.33-0.81v-8.96h2.34c0.31 0 0.57-0.09 0.75-0.28 0.21-0.19 0.31-0.43 0.31-0.73s-0.1-0.54-0.31-0.73c-0.18-0.21-0.44-0.31-0.75-0.31h-2.34v-1.65c0-0.46 0.12-0.84 0.36-1.16 0.25-0.31 0.64-0.47 1.15-0.47 0.26 0 0.55 0.05 0.9 0.14 0.28 0.07 0.46 0.1 0.52 0.1 0.25 0 0.46-0.1 0.64-0.29 0.18-0.2 0.28-0.45 0.28-0.75 0-0.39-0.21-0.68-0.61-0.87-0.41-0.21-0.88-0.31-1.42-0.31zm-161.01 0.82c-0.18 0.01-0.35 0.06-0.5 0.17-0.19 0.13-0.34 0.32-0.45 0.57l-6.02 14.57c-0.03 0.19-0.04 0.32-0.04 0.38 0 0.3 0.08 0.53 0.26 0.71 0.17 0.17 0.42 0.26 0.75 0.26 0.22 0 0.42-0.07 0.59-0.19 0.19-0.13 0.32-0.31 0.4-0.54l1.44-3.49h7.29l1.46 3.46c0.11 0.24 0.25 0.43 0.42 0.57 0.19 0.12 0.4 0.19 0.62 0.19 0.28 0 0.52-0.11 0.73-0.31 0.22-0.2 0.33-0.46 0.33-0.78 0-0.15-0.02-0.3-0.07-0.45l-5.99-14.38c-0.08-0.24-0.22-0.42-0.4-0.55-0.19-0.12-0.41-0.18-0.64-0.18-0.06-0.01-0.12-0.02-0.18-0.01zm-222.29 0.08c-0.31 0-0.58 0.11-0.8 0.33s-0.33 0.48-0.33 0.8v14.24c0 0.32 0.11 0.59 0.33 0.81s0.5 0.33 0.83 0.33c0.31 0 0.58-0.11 0.8-0.33 0.23-0.22 0.35-0.49 0.35-0.81v-6.18h5.8c0.33 0 0.6-0.1 0.81-0.3 0.22-0.21 0.33-0.45 0.33-0.73 0-0.33-0.11-0.6-0.33-0.81-0.21-0.2-0.48-0.3-0.81-0.3h-5.8v-4.88h6.87c0.31 0 0.58-0.11 0.8-0.31 0.22-0.22 0.33-0.47 0.33-0.76 0-0.33-0.11-0.59-0.33-0.8-0.21-0.2-0.47-0.3-0.8-0.3h-8.05zm103.14 0c-0.31 0-0.58 0.11-0.8 0.33s-0.33 0.48-0.33 0.8v14.24c0 0.32 0.11 0.59 0.33 0.81s0.5 0.33 0.83 0.33c0.31 0 0.58-0.11 0.8-0.33 0.24-0.22 0.35-0.49 0.35-0.81v-6.18h5.81c0.33 0 0.59-0.1 0.8-0.3 0.22-0.21 0.33-0.45 0.33-0.73 0-0.33-0.11-0.6-0.33-0.81-0.21-0.2-0.47-0.3-0.8-0.3h-5.81v-4.88h6.87c0.31 0 0.58-0.11 0.8-0.31 0.22-0.22 0.33-0.47 0.33-0.76 0-0.33-0.11-0.59-0.33-0.8-0.2-0.2-0.47-0.3-0.8-0.3h-8.05zm145.85 0c-0.32 0-0.58 0.11-0.8 0.33s-0.33 0.48-0.33 0.8v14.24c0 0.32 0.11 0.59 0.33 0.81s0.48 0.33 0.8 0.33h6.06c1.46 0 2.7-0.37 3.7-1.11 1.03-0.76 1.54-2.01 1.54-3.75 0-1.1-0.29-1.99-0.85-2.67-0.55-0.69-1.26-1.18-2.13-1.48 0.7-0.32 1.22-0.76 1.58-1.35 0.37-0.59 0.55-1.27 0.55-2.03 0-1.33-0.38-2.35-1.14-3.06-0.73-0.71-1.82-1.06-3.25-1.06h-6.06zm22.2 0c-0.33 0-0.61 0.1-0.83 0.3-0.2 0.19-0.31 0.44-0.31 0.76 0 0.33 0.11 0.6 0.31 0.8 0.22 0.19 0.5 0.28 0.83 0.28h4.17v13.23c0 0.32 0.11 0.59 0.33 0.81 0.24 0.22 0.53 0.33 0.87 0.33 0.35 0 0.63-0.11 0.85-0.33 0.24-0.22 0.36-0.49 0.36-0.81v-13.23h4.2c0.33 0 0.59-0.09 0.8-0.28 0.22-0.19 0.33-0.45 0.33-0.78s-0.11-0.59-0.33-0.78c-0.21-0.2-0.47-0.3-0.8-0.3h-10.78zm59.06 0c-0.31 0-0.58 0.11-0.8 0.33s-0.33 0.48-0.33 0.8v14.24c0 0.33 0.09 0.61 0.28 0.83 0.21 0.2 0.47 0.31 0.8 0.31 0.32 0 0.58-0.11 0.78-0.33 0.21-0.22 0.31-0.49 0.31-0.81v-5.21h4.43c0.83 0 1.61-0.23 2.31-0.68 0.71-0.46 1.27-1.08 1.68-1.87 0.42-0.78 0.63-1.64 0.63-2.57 0-0.92-0.21-1.77-0.63-2.54-0.41-0.77-0.97-1.38-1.68-1.82-0.7-0.46-1.48-0.68-2.31-0.68h-5.47zm-284.05 1.18c-0.33 0-0.6 0.11-0.82 0.33-0.21 0.22-0.31 0.48-0.31 0.8v1.98h-1.37c-0.3 0-0.55 0.09-0.75 0.28-0.19 0.19-0.28 0.43-0.28 0.73s0.09 0.55 0.28 0.76c0.2 0.19 0.45 0.28 0.75 0.28h1.37v7.12c0 0.92 0.17 1.6 0.5 2.06 0.34 0.44 0.73 0.71 1.15 0.82 0.44 0.11 0.92 0.17 1.44 0.17 0.47 0 0.9-0.12 1.28-0.36 0.37-0.23 0.56-0.52 0.56-0.85 0-0.26-0.07-0.48-0.21-0.66-0.14-0.17-0.32-0.26-0.52-0.26-0.11 0-0.26 0.03-0.45 0.1-0.19 0.04-0.34 0.07-0.45 0.07-0.7 0-1.06-0.39-1.06-1.18v-7.03h1.96c0.3 0 0.54-0.09 0.73-0.28 0.21-0.19 0.31-0.43 0.31-0.73s-0.1-0.54-0.31-0.73c-0.19-0.21-0.43-0.31-0.73-0.31h-1.96v-1.98c0-0.32-0.11-0.58-0.33-0.8-0.2-0.22-0.46-0.33-0.78-0.33zm267.88 0c-0.33 0-0.61 0.11-0.83 0.33-0.2 0.22-0.3 0.48-0.3 0.8v1.98h-1.37c-0.3 0-0.55 0.09-0.76 0.28-0.19 0.19-0.28 0.43-0.28 0.73s0.09 0.55 0.28 0.76c0.21 0.19 0.46 0.28 0.76 0.28h1.37v7.12c0 0.92 0.16 1.6 0.49 2.06 0.35 0.44 0.73 0.71 1.16 0.82 0.44 0.11 0.91 0.17 1.43 0.17 0.48 0 0.9-0.12 1.28-0.36 0.38-0.23 0.56-0.52 0.56-0.85 0-0.26-0.07-0.48-0.21-0.66-0.14-0.17-0.31-0.26-0.52-0.26-0.11 0-0.26 0.03-0.44 0.1-0.19 0.04-0.34 0.07-0.45 0.07-0.71 0-1.06-0.39-1.06-1.18v-7.03h1.95c0.3 0 0.54-0.09 0.73-0.28 0.21-0.19 0.31-0.43 0.31-0.73s-0.1-0.54-0.31-0.73c-0.19-0.21-0.43-0.31-0.73-0.31h-1.95v-1.98c0-0.32-0.11-0.58-0.33-0.8-0.21-0.22-0.47-0.33-0.78-0.33zm56.01 0c-0.33 0-0.6 0.11-0.82 0.33-0.21 0.22-0.31 0.48-0.31 0.8v1.98h-1.37c-0.3 0-0.55 0.09-0.75 0.28-0.19 0.19-0.29 0.43-0.29 0.73s0.1 0.55 0.29 0.76c0.2 0.19 0.45 0.28 0.75 0.28h1.37v7.12c0 0.92 0.17 1.6 0.5 2.06 0.34 0.44 0.73 0.71 1.15 0.82 0.44 0.11 0.92 0.17 1.44 0.17 0.47 0 0.9-0.12 1.27-0.36 0.38-0.23 0.57-0.52 0.57-0.85 0-0.26-0.07-0.48-0.21-0.66-0.14-0.17-0.32-0.26-0.52-0.26-0.11 0-0.26 0.03-0.45 0.1-0.19 0.04-0.34 0.07-0.45 0.07-0.71 0-1.06-0.39-1.06-1.18v-7.03h1.96c0.3 0 0.54-0.09 0.73-0.28 0.21-0.19 0.31-0.43 0.31-0.73s-0.1-0.54-0.31-0.73c-0.19-0.21-0.43-0.31-0.73-0.31h-1.96v-1.98c0-0.32-0.11-0.58-0.33-0.8-0.2-0.22-0.46-0.33-0.78-0.33zm-38.8 0.99h4.43c0.65 0 1.2 0.28 1.65 0.84 0.47 0.56 0.71 1.23 0.71 2.03 0 0.52-0.11 1.01-0.33 1.47-0.2 0.45-0.49 0.82-0.85 1.1-0.36 0.27-0.75 0.41-1.18 0.41h-4.43v-5.85zm-81.03 0.04h4.46c0.72 0 1.28 0.2 1.67 0.59 0.41 0.38 0.62 0.94 0.62 1.68s-0.21 1.31-0.64 1.72c-0.42 0.39-0.96 0.6-1.6 0.61h-4.51v-4.6zm-27.91 1.39l2.76 6.61h-5.49l2.73-6.61zm-204.27 0.26c-1.02 0-1.98 0.27-2.88 0.81-0.88 0.53-1.59 1.3-2.15 2.31-0.53 0.99-0.8 2.14-0.8 3.46 0 1.22 0.26 2.3 0.78 3.26 0.54 0.96 1.28 1.71 2.24 2.24 0.98 0.54 2.1 0.8 3.37 0.8 0.79 0 1.56-0.15 2.32-0.47 0.75-0.31 1.36-0.7 1.81-1.16 0.32-0.26 0.47-0.56 0.47-0.89 0-0.25-0.09-0.47-0.28-0.66-0.17-0.19-0.39-0.29-0.66-0.29-0.22 0-0.45 0.08-0.68 0.22-0.37 0.34-0.78 0.63-1.25 0.85-0.48 0.22-1.09 0.33-1.84 0.33-1.11 0-2.04-0.35-2.81-1.04-0.76-0.69-1.19-1.61-1.3-2.76h8.3c0.3 0 0.56-0.09 0.78-0.28 0.22-0.21 0.34-0.45 0.36-0.74-0.02-1.13-0.29-2.15-0.83-3.06-0.53-0.91-1.24-1.63-2.12-2.15s-1.83-0.78-2.83-0.78zm14.83 0c-1.04 0-1.99 0.28-2.86 0.83-0.86 0.55-1.55 1.32-2.05 2.31-0.49 0.98-0.73 2.08-0.73 3.3 0 1.23 0.24 2.34 0.73 3.33 0.5 0.97 1.19 1.74 2.05 2.29 0.88 0.55 1.86 0.82 2.93 0.82 0.81 0 1.58-0.19 2.29-0.56 0.7-0.4 1.26-0.87 1.67-1.42v0.61c0 0.33 0.1 0.61 0.31 0.83 0.2 0.2 0.47 0.31 0.8 0.31s0.6-0.11 0.8-0.33c0.22-0.22 0.33-0.49 0.33-0.81v-10.23c0-0.35-0.11-0.62-0.33-0.83-0.2-0.22-0.47-0.33-0.8-0.33s-0.6 0.11-0.8 0.33c-0.21 0.22-0.31 0.5-0.31 0.83v0.56c-0.42-0.53-1-0.97-1.72-1.32-0.71-0.34-1.48-0.52-2.31-0.52zm42.82 0c-0.88 0.02-1.66 0.27-2.36 0.76-0.69 0.47-1.21 1.09-1.55 1.86v-1.2c0-0.31-0.11-0.58-0.33-0.8-0.21-0.22-0.48-0.33-0.81-0.33-0.31 0-0.58 0.11-0.8 0.33-0.2 0.22-0.3 0.49-0.3 0.8v10.09c0 0.33 0.1 0.61 0.3 0.83 0.21 0.2 0.47 0.31 0.8 0.31s0.6-0.11 0.81-0.33c0.22-0.22 0.33-0.49 0.33-0.81v-5.68c0-0.72 0.14-1.37 0.42-1.96 0.3-0.59 0.68-1.06 1.13-1.39 0.47-0.35 0.96-0.52 1.44-0.52 0.19 0 0.45 0.06 0.78 0.17 0.28 0.09 0.5 0.14 0.64 0.14 0.28 0 0.52-0.09 0.7-0.28 0.21-0.21 0.31-0.5 0.31-0.88 0-0.31-0.15-0.57-0.45-0.78-0.3-0.22-0.65-0.33-1.06-0.33zm9.6 0c-1.02 0-1.98 0.27-2.87 0.81-0.88 0.53-1.6 1.3-2.15 2.31-0.53 0.99-0.8 2.14-0.8 3.46 0 1.22 0.26 2.3 0.78 3.26 0.53 0.96 1.28 1.71 2.24 2.24 0.97 0.54 2.1 0.8 3.37 0.8 0.79 0 1.56-0.15 2.31-0.47 0.76-0.31 1.36-0.7 1.82-1.16 0.31-0.26 0.47-0.56 0.47-0.89 0-0.25-0.09-0.47-0.28-0.66-0.18-0.19-0.4-0.29-0.66-0.29-0.22 0-0.45 0.08-0.69 0.22-0.36 0.34-0.78 0.63-1.25 0.85s-1.08 0.33-1.84 0.33c-1.1 0-2.03-0.35-2.81-1.04-0.75-0.69-1.18-1.61-1.29-2.76h8.3c0.3 0 0.56-0.09 0.78-0.28 0.22-0.21 0.34-0.45 0.35-0.74-0.01-1.13-0.29-2.15-0.82-3.06-0.54-0.91-1.25-1.63-2.13-2.15s-1.82-0.78-2.83-0.78zm43.53 0c-1.04 0-1.99 0.28-2.85 0.83-0.87 0.55-1.55 1.32-2.05 2.31-0.49 0.98-0.74 2.08-0.74 3.3 0 1.23 0.25 2.34 0.74 3.33 0.5 0.97 1.18 1.74 2.05 2.29 0.88 0.55 1.85 0.82 2.92 0.82 0.82 0 1.58-0.19 2.29-0.56 0.71-0.4 1.27-0.87 1.67-1.42v0.61c0 0.33 0.11 0.61 0.31 0.83 0.21 0.2 0.47 0.31 0.8 0.31s0.6-0.11 0.8-0.33c0.23-0.22 0.34-0.49 0.34-0.81v-10.23c0-0.35-0.11-0.62-0.34-0.83-0.2-0.22-0.47-0.33-0.8-0.33s-0.59 0.11-0.8 0.33c-0.2 0.22-0.31 0.5-0.31 0.83v0.56c-0.42-0.53-0.99-0.97-1.72-1.32-0.7-0.34-1.48-0.52-2.31-0.52zm16.11 0c-1.07 0-2.06 0.28-2.95 0.83-0.88 0.55-1.58 1.32-2.1 2.31-0.5 0.98-0.76 2.08-0.76 3.3 0 1.23 0.26 2.34 0.76 3.33 0.52 0.97 1.23 1.74 2.12 2.29 0.9 0.55 1.89 0.82 2.97 0.82 0.87 0 1.68-0.22 2.46-0.66s1.34-0.97 1.67-1.58v1.28c0 1.05-0.34 1.87-1.01 2.47-0.66 0.61-1.62 0.92-2.88 0.92-0.71 0-1.69-0.24-2.95-0.73-0.23-0.09-0.45-0.14-0.66-0.14-0.41 0-0.7 0.2-0.87 0.59-0.07 0.16-0.1 0.28-0.1 0.38 0 0.37 0.25 0.69 0.73 0.94 0.24 0.24 0.77 0.46 1.61 0.68 0.85 0.22 1.59 0.33 2.21 0.33 1.17 0 2.21-0.2 3.14-0.61s1.66-1.04 2.19-1.91c0.56-0.85 0.83-1.91 0.83-3.18v-10.38c0-0.35-0.11-0.62-0.33-0.83-0.2-0.22-0.47-0.33-0.8-0.33s-0.6 0.11-0.8 0.33c-0.21 0.22-0.31 0.5-0.31 0.83v0.75c-0.42-0.56-1.01-1.04-1.77-1.44-0.74-0.39-1.54-0.59-2.4-0.59zm22.63 0c-1.03 0-1.98 0.28-2.85 0.83-0.86 0.55-1.55 1.32-2.05 2.31-0.49 0.98-0.73 2.08-0.73 3.3 0 1.23 0.24 2.34 0.73 3.33 0.5 0.97 1.19 1.74 2.05 2.29 0.88 0.55 1.85 0.82 2.92 0.82 0.82 0 1.58-0.19 2.29-0.56 0.71-0.4 1.27-0.87 1.68-1.42v0.61c0 0.33 0.1 0.61 0.3 0.83 0.21 0.2 0.47 0.31 0.8 0.31s0.6-0.11 0.81-0.33c0.22-0.22 0.33-0.49 0.33-0.81v-10.23c0-0.35-0.11-0.62-0.33-0.83-0.21-0.22-0.48-0.33-0.81-0.33s-0.59 0.11-0.8 0.33c-0.2 0.22-0.3 0.5-0.3 0.83v0.56c-0.43-0.53-1-0.97-1.73-1.32-0.7-0.34-1.47-0.52-2.31-0.52zm17.36 0c-0.84 0-1.62 0.22-2.36 0.66-0.73 0.43-1.29 0.96-1.7 1.58v-0.82c0-0.31-0.11-0.58-0.33-0.8-0.2-0.22-0.47-0.33-0.8-0.33-0.32 0-0.58 0.11-0.8 0.33-0.21 0.22-0.31 0.49-0.31 0.8v10.09c0 0.33 0.1 0.61 0.31 0.83 0.2 0.2 0.47 0.31 0.8 0.31s0.6-0.11 0.8-0.33c0.22-0.22 0.33-0.49 0.33-0.81v-6.39c0-0.55 0.14-1.05 0.42-1.51 0.3-0.47 0.7-0.84 1.21-1.11 0.52-0.28 1.09-0.42 1.72-0.42 0.96 0 1.65 0.28 2.07 0.83 0.43 0.55 0.64 1.29 0.64 2.21v6.39c0 0.32 0.1 0.59 0.31 0.81 0.22 0.22 0.49 0.33 0.8 0.33 0.33 0 0.6-0.11 0.8-0.33 0.22-0.22 0.33-0.49 0.33-0.81v-6.41c0-3.4-1.41-5.1-4.24-5.1zm104.31 0c-1.02 0-1.98 0.27-2.88 0.81-0.88 0.53-1.6 1.3-2.15 2.31-0.53 0.99-0.8 2.14-0.8 3.46 0 1.22 0.26 2.3 0.78 3.26 0.54 0.96 1.28 1.71 2.24 2.24 0.98 0.54 2.1 0.8 3.37 0.8 0.79 0 1.56-0.15 2.31-0.47 0.76-0.31 1.37-0.7 1.82-1.16 0.32-0.26 0.47-0.56 0.47-0.89 0-0.25-0.09-0.47-0.28-0.66-0.17-0.19-0.39-0.29-0.66-0.29-0.22 0-0.45 0.08-0.69 0.22-0.36 0.34-0.77 0.63-1.25 0.85-0.47 0.22-1.08 0.33-1.83 0.33-1.11 0-2.04-0.35-2.81-1.04-0.76-0.69-1.19-1.61-1.3-2.76h8.3c0.3 0 0.56-0.09 0.78-0.28 0.22-0.21 0.34-0.45 0.36-0.74-0.02-1.13-0.29-2.15-0.83-3.06-0.53-0.91-1.24-1.63-2.12-2.15s-1.83-0.78-2.83-0.78zm13.86 0c-0.79 0-1.52 0.15-2.19 0.45-0.66 0.3-1.2 0.72-1.61 1.25-0.39 0.54-0.59 1.16-0.59 1.87 0 0.8 0.2 1.45 0.59 1.95 0.41 0.49 0.91 0.87 1.49 1.14 0.58 0.25 1.31 0.49 2.19 0.73 0.9 0.23 1.58 0.49 2.03 0.77 0.47 0.29 0.71 0.7 0.71 1.23 0 0.58-0.23 1.01-0.69 1.27-0.45 0.26-0.98 0.39-1.58 0.41-0.75 0-1.4-0.14-1.95-0.41-0.54-0.26-1.04-0.66-1.51-1.2-0.24-0.23-0.5-0.35-0.78-0.35-0.2 0-0.39 0.05-0.54 0.16-0.33 0.22-0.5 0.49-0.5 0.81 0 0.2 0.07 0.41 0.21 0.63 0.59 0.76 1.29 1.31 2.13 1.65 0.85 0.35 1.77 0.52 2.76 0.52 0.77 0 1.49-0.14 2.17-0.42 0.69-0.3 1.25-0.72 1.67-1.25 0.43-0.55 0.64-1.2 0.64-1.94 0-0.8-0.19-1.44-0.57-1.93-0.38-0.5-0.84-0.88-1.39-1.13s-1.24-0.49-2.08-0.71c-0.95-0.25-1.67-0.51-2.14-0.78-0.46-0.27-0.69-0.68-0.71-1.23 0-0.58 0.21-0.99 0.61-1.22 0.43-0.25 0.94-0.38 1.54-0.38 0.58 0 1.11 0.1 1.58 0.31 0.48 0.2 0.89 0.49 1.22 0.87 0.18 0.19 0.4 0.28 0.69 0.28 0.23 0 0.43-0.07 0.59-0.21 0.25-0.23 0.37-0.48 0.37-0.73 0-0.24-0.09-0.46-0.28-0.68-0.47-0.58-1.08-1.02-1.84-1.3-0.74-0.28-1.48-0.43-2.24-0.43zm53.67 0c-1.04 0-1.99 0.28-2.86 0.83-0.86 0.55-1.55 1.32-2.05 2.31-0.49 0.98-0.73 2.08-0.73 3.3 0 1.23 0.24 2.34 0.73 3.33 0.5 0.97 1.19 1.74 2.05 2.29 0.88 0.55 1.86 0.82 2.93 0.82 0.81 0 1.58-0.19 2.28-0.56 0.71-0.4 1.27-0.87 1.68-1.42v0.61c0 0.33 0.1 0.61 0.31 0.83 0.2 0.2 0.47 0.31 0.8 0.31s0.59-0.11 0.8-0.33c0.22-0.22 0.33-0.49 0.33-0.81v-10.23c0-0.35-0.11-0.62-0.33-0.83-0.21-0.22-0.47-0.33-0.8-0.33s-0.6 0.11-0.8 0.33c-0.21 0.22-0.31 0.5-0.31 0.83v0.56c-0.43-0.53-1-0.97-1.72-1.32-0.71-0.34-1.48-0.52-2.31-0.52zm37.07 0c-1.15 0-2.2 0.28-3.16 0.83-0.94 0.55-1.69 1.32-2.24 2.31s-0.83 2.1-0.83 3.33c0 1.22 0.28 2.33 0.83 3.3s1.3 1.74 2.24 2.29c0.96 0.55 2.01 0.82 3.16 0.82s2.19-0.27 3.14-0.82c0.96-0.55 1.71-1.32 2.26-2.29s0.83-2.08 0.83-3.3c0-1.23-0.28-2.34-0.83-3.33s-1.3-1.76-2.26-2.31c-0.95-0.55-1.99-0.83-3.14-0.83zm16.44 0c-0.88 0.02-1.67 0.27-2.36 0.76-0.69 0.47-1.21 1.09-1.56 1.86v-1.2c0-0.31-0.11-0.58-0.33-0.8-0.2-0.22-0.47-0.33-0.8-0.33-0.31 0-0.58 0.11-0.8 0.33-0.21 0.22-0.31 0.49-0.31 0.8v10.09c0 0.33 0.1 0.61 0.31 0.83 0.2 0.2 0.47 0.31 0.8 0.31s0.6-0.11 0.8-0.33c0.22-0.22 0.33-0.49 0.33-0.81v-5.68c0-0.72 0.14-1.37 0.43-1.96 0.3-0.59 0.67-1.06 1.13-1.39 0.47-0.35 0.95-0.52 1.44-0.52 0.19 0 0.45 0.06 0.78 0.17 0.28 0.09 0.49 0.14 0.63 0.14 0.29 0 0.52-0.09 0.71-0.28 0.2-0.21 0.31-0.5 0.31-0.88 0-0.31-0.15-0.57-0.45-0.78-0.3-0.22-0.65-0.33-1.06-0.33zm11.15 0.07c-0.81 0-1.56 0.22-2.25 0.64-0.67 0.41-1.22 0.92-1.62 1.53v-0.82c0-0.31-0.11-0.58-0.33-0.8-0.21-0.22-0.47-0.33-0.8-0.33-0.32 0-0.59 0.11-0.81 0.33-0.2 0.22-0.3 0.49-0.3 0.8v10.09c0 0.33 0.1 0.61 0.3 0.83 0.21 0.2 0.48 0.31 0.81 0.31s0.59-0.11 0.8-0.33c0.22-0.22 0.33-0.49 0.33-0.81v-6.29c0-0.87 0.3-1.59 0.89-2.17 0.62-0.6 1.39-0.9 2.32-0.9 0.91 0 1.56 0.28 1.95 0.85 0.4 0.55 0.59 1.29 0.59 2.22v6.29c0 0.33 0.1 0.61 0.31 0.83 0.2 0.2 0.47 0.31 0.8 0.31s0.6-0.11 0.8-0.33c0.22-0.22 0.33-0.49 0.33-0.81v-6.27c0-0.57 0.14-1.08 0.4-1.56 0.29-0.47 0.67-0.84 1.16-1.11 0.5-0.28 1.06-0.42 1.67-0.42 1.73 0 2.6 1.03 2.6 3.09v6.27c0 0.32 0.1 0.59 0.31 0.81 0.22 0.22 0.49 0.33 0.82 0.33s0.6-0.11 0.8-0.31c0.21-0.22 0.31-0.5 0.31-0.83v-6.29c0-3.43-1.38-5.15-4.13-5.15-0.89 0-1.75 0.27-2.55 0.81-0.8 0.53-1.37 1.13-1.72 1.79-0.58-1.73-1.84-2.6-3.79-2.6zm-365.93 0.22c-0.31 0-0.58 0.11-0.8 0.33-0.21 0.22-0.31 0.49-0.31 0.8v6.27c0 1.64 0.45 2.91 1.34 3.82 0.9 0.9 2.17 1.35 3.8 1.35 1.65 0 2.93-0.45 3.82-1.35 0.92-0.91 1.37-2.18 1.37-3.82v-6.27c0-0.31-0.11-0.58-0.33-0.8-0.2-0.22-0.47-0.33-0.8-0.33-0.32 0-0.58 0.11-0.8 0.33-0.21 0.22-0.31 0.49-0.31 0.8v6.27c0 1.03-0.25 1.8-0.75 2.31-0.51 0.52-1.24 0.78-2.2 0.78-1.93 0-2.9-1.03-2.9-3.09v-6.27c0-0.31-0.11-0.58-0.33-0.8-0.2-0.22-0.47-0.33-0.8-0.33zm-37.45 1.79c0.85 0 1.6 0.27 2.26 0.8 0.68 0.54 1.06 1.22 1.13 2.05v0.19h-6.95c0.2-1.03 0.62-1.8 1.27-2.29 0.64-0.5 1.41-0.75 2.29-0.75zm15.16 0c0.74 0 1.39 0.2 1.96 0.59 0.58 0.38 1.02 0.9 1.34 1.56 0.33 0.66 0.49 1.4 0.49 2.21 0 0.84-0.16 1.58-0.49 2.24-0.32 0.66-0.76 1.18-1.34 1.56-0.57 0.38-1.22 0.57-1.96 0.57s-1.4-0.19-1.98-0.57c-0.57-0.38-1.02-0.9-1.35-1.56-0.31-0.66-0.47-1.4-0.47-2.24 0-0.83 0.16-1.58 0.47-2.24 0.33-0.66 0.78-1.18 1.35-1.55 0.58-0.38 1.24-0.57 1.98-0.57zm52.09 0c0.85 0 1.61 0.27 2.27 0.8 0.67 0.54 1.05 1.22 1.13 2.05v0.19h-6.96c0.21-1.03 0.63-1.8 1.28-2.29 0.64-0.5 1.4-0.75 2.28-0.75zm43.86 0c0.74 0 1.39 0.2 1.96 0.59 0.58 0.38 1.03 0.9 1.34 1.56 0.33 0.66 0.5 1.4 0.5 2.21 0 0.84-0.17 1.58-0.5 2.24-0.31 0.66-0.76 1.18-1.34 1.56-0.57 0.38-1.22 0.57-1.96 0.57s-1.4-0.19-1.98-0.57c-0.56-0.38-1.01-0.9-1.34-1.56-0.32-0.66-0.48-1.4-0.48-2.24 0-0.83 0.16-1.58 0.48-2.24 0.33-0.66 0.78-1.18 1.34-1.55 0.58-0.38 1.24-0.57 1.98-0.57zm16.08 0c0.77 0 1.46 0.19 2.05 0.57 0.6 0.37 1.06 0.89 1.4 1.55s0.51 1.41 0.51 2.24c0 0.84-0.17 1.59-0.51 2.27-0.34 0.66-0.8 1.18-1.4 1.55-0.59 0.37-1.28 0.55-2.05 0.55-0.75 0-1.43-0.19-2.03-0.57-0.59-0.38-1.07-0.9-1.41-1.56-0.33-0.67-0.5-1.42-0.5-2.24 0-0.81 0.17-1.55 0.5-2.21 0.34-0.68 0.82-1.21 1.41-1.58 0.6-0.38 1.28-0.57 2.03-0.57zm22.66 0c0.74 0 1.39 0.2 1.96 0.59 0.58 0.38 1.03 0.9 1.34 1.56 0.33 0.66 0.5 1.4 0.5 2.21 0 0.84-0.17 1.58-0.5 2.24-0.31 0.66-0.76 1.18-1.34 1.56-0.57 0.38-1.22 0.57-1.96 0.57s-1.4-0.19-1.98-0.57c-0.56-0.38-1.01-0.9-1.34-1.56-0.32-0.66-0.47-1.4-0.47-2.24 0-0.83 0.15-1.58 0.47-2.24 0.33-0.66 0.78-1.18 1.34-1.55 0.58-0.38 1.24-0.57 1.98-0.57zm31.33 0c0.74 0 1.39 0.19 1.96 0.57 0.58 0.37 1.03 0.9 1.34 1.58 0.33 0.66 0.49 1.4 0.49 2.21 0 0.84-0.16 1.58-0.49 2.24-0.31 0.66-0.76 1.18-1.34 1.56-0.57 0.38-1.22 0.57-1.96 0.57s-1.4-0.19-1.98-0.57c-0.57-0.38-1.02-0.9-1.35-1.56-0.31-0.66-0.47-1.4-0.47-2.24 0-0.81 0.16-1.55 0.47-2.21 0.33-0.68 0.78-1.21 1.35-1.58 0.58-0.38 1.24-0.57 1.98-0.57zm90.01 0c0.85 0 1.6 0.27 2.26 0.8 0.68 0.54 1.06 1.22 1.13 2.05v0.19h-6.95c0.2-1.03 0.62-1.8 1.27-2.29 0.64-0.5 1.41-0.75 2.29-0.75zm67.86 0c0.73 0 1.39 0.2 1.95 0.59 0.59 0.38 1.03 0.9 1.35 1.56 0.33 0.66 0.49 1.4 0.49 2.21 0 0.84-0.16 1.58-0.49 2.24-0.32 0.66-0.76 1.18-1.35 1.56-0.56 0.38-1.22 0.57-1.95 0.57-0.74 0-1.4-0.19-1.99-0.57-0.56-0.38-1.01-0.9-1.34-1.56-0.31-0.66-0.47-1.4-0.47-2.24 0-0.83 0.16-1.58 0.47-2.24 0.33-0.66 0.78-1.18 1.34-1.55 0.59-0.38 1.25-0.57 1.99-0.57zm36.74 0c0.74 0 1.41 0.19 2 0.57 0.62 0.36 1.1 0.88 1.44 1.55 0.36 0.66 0.55 1.42 0.55 2.27 0 0.83-0.19 1.58-0.55 2.24-0.34 0.66-0.82 1.18-1.44 1.55-0.59 0.37-1.26 0.55-2 0.55s-1.42-0.18-2.03-0.55c-0.6-0.37-1.08-0.89-1.44-1.55-0.34-0.66-0.52-1.41-0.52-2.24 0-0.85 0.18-1.61 0.52-2.27 0.36-0.67 0.84-1.19 1.44-1.55 0.61-0.38 1.29-0.57 2.03-0.57zm-143.61 3.09h4.65c1.98 0 2.97 0.87 2.97 2.62 0 0.89-0.26 1.57-0.78 2.03-0.52 0.44-1.21 0.66-2.07 0.66h-4.77v-5.31z"
     id="outline" /><g
     style="opacity:0"
     id="logo-fade"><g
       transform="matrix(1.0682,0,0,1.0682,-34.915,-25.852)"
       id="logo-group"><path
         stroke-miterlimit="2"
         d="m 310.65,425.07 v 4.5706 h 5.4317 q 0.46368,0 0.75072,0.28704 0.30912,0.28704 0.30912,0.75072 0,0.39744 -0.30912,0.68448 -0.28704,0.28704 -0.75072,0.28704 H 310.65 v 5.785 q 0,0.4416 -0.3312,0.75072 -0.30912,0.30912 -0.75072,0.30912 -0.46368,0 -0.7728,-0.30912 -0.30912,-0.30912 -0.30912,-0.75072 v -13.336 q 0,-0.4416 0.30912,-0.75072 0.30912,-0.30912 0.75072,-0.30912 h 7.5293 q 0.46368,0 0.75072,0.28704 0.30912,0.28704 0.30912,0.75072 0,0.39744 -0.30912,0.70656 -0.30912,0.28704 -0.75072,0.28704 z"
         style="font-variant-ligatures:none;fill:#8cc3df;stroke-width:0;stroke-miterlimit:2"
         id="path48480" /><path
         stroke-miterlimit="2"
         d="m 331.88,432.27 q -0.0221,0.39744 -0.3312,0.68448 -0.30912,0.26496 -0.72864,0.26496 h -7.7722 q 0.15456,1.6118 1.2144,2.5834 1.0819,0.97152 2.6275,0.97152 1.0598,0 1.7222,-0.30912 0.6624,-0.30912 1.1702,-0.79488 0.3312,-0.19872 0.64032,-0.19872 0.37536,0 0.61824,0.26496 0.26496,0.26496 0.26496,0.61824 0,0.46368 -0.4416,0.83904 -0.64032,0.64032 -1.7002,1.0819 -1.0598,0.4416 -2.1638,0.4416 -1.7885,0 -3.1574,-0.75072 -1.3469,-0.75072 -2.0976,-2.0976 -0.72864,-1.3469 -0.72864,-3.047 0,-1.8547 0.75072,-3.2458 0.7728,-1.4131 2.0093,-2.1638 1.2586,-0.75072 2.6938,-0.75072 1.4131,0 2.6496,0.72864 1.2365,0.72864 1.9872,2.0093 0.75072,1.2806 0.7728,2.8704 z m -5.4096,-3.6653 q -1.2365,0 -2.1418,0.70656 -0.90528,0.68448 -1.1923,2.1418 h 6.5136 v -0.17664 q -0.1104,-1.1702 -1.0598,-1.921 -0.92736,-0.75072 -2.1197,-0.75072 z"
         style="font-variant-ligatures:none;fill:#8cc3df;stroke-width:0;stroke-miterlimit:2"
         id="path48482" /><path
         stroke-miterlimit="2"
         d="m 345.17,426.77 q 0.46368,0 0.75072,0.30912 0.30912,0.28704 0.30912,0.7728 v 9.5827 q 0,0.4416 -0.30912,0.75072 -0.28704,0.30912 -0.75072,0.30912 -0.46368,0 -0.75072,-0.28704 -0.28704,-0.30912 -0.28704,-0.7728 v -0.57408 q -0.57408,0.7728 -1.5677,1.3248 -0.9936,0.52992 -2.1418,0.52992 -1.5014,0 -2.7379,-0.7728 -1.2144,-0.7728 -1.921,-2.1418 -0.68448,-1.391 -0.68448,-3.1133 0,-1.7222 0.68448,-3.0912 0.70656,-1.391 1.921,-2.1638 1.21444,-0.7728 2.6717,-0.7728 1.1702,0 2.1638,0.48576 1.0157,0.48576 1.6118,1.2365 v -0.52992 q 0,-0.46368 0.28704,-0.7728 0.28704,-0.30912 0.75072,-0.30912 z m -4.5043,10.002 q 1.0378,0 1.8326,-0.52992 0.81696,-0.52992 1.2586,-1.4573 0.46368,-0.92736 0.46368,-2.0976 0,-1.1482 -0.46368,-2.0755 -0.4416,-0.92736 -1.2586,-1.4573 -0.79488,-0.552 -1.8326,-0.552 -1.0378,0 -1.8547,0.52992 -0.79488,0.52992 -1.2586,1.4573 -0.4416,0.92736 -0.4416,2.0976 0,1.17024 0.4416,2.0976 0.46368,0.92736 1.2586,1.4573 0.81696,0.52992 1.8547,0.52992 z"
         style="font-variant-ligatures:none;fill:#8cc3df;stroke-width:0;stroke-miterlimit:2"
         id="path48484" /><path
         stroke-miterlimit="2"
         d="m 353.84,428.98 v 6.5798 q 0,1.104 0.9936,1.104 0.15456,0 0.41952,-0.0662 0.26496,-0.0883 0.41952,-0.0883 0.28704,0 0.48576,0.24288 0.19872,0.24288 0.19872,0.61824 0,0.46368 -0.52992,0.79488 -0.52992,0.3312 -1.1923,0.3312 -0.72864,0 -1.3469,-0.15456 -0.59616,-0.15456 -1.0819,-0.7728 -0.46368,-0.64032 -0.46368,-1.921 v -6.6682 h -1.2806 q -0.41952,0 -0.70656,-0.26496 -0.26496,-0.28704 -0.26496,-0.70656 0,-0.41952 0.26496,-0.68448 0.28704,-0.26496 0.70656,-0.26496 h 1.2806 v -1.8547 q 0,-0.4416 0.28704,-0.75072 0.30912,-0.30912 0.7728,-0.30912 0.4416,0 0.72864,0.30912 0.30912,0.30912 0.30912,0.75072 v 1.8547 h 1.8326 q 0.41952,0 0.68448,0.28704 0.28704,0.26496 0.28704,0.68448 0,0.41952 -0.28704,0.68448 -0.26496,0.26496 -0.68448,0.26496 z"
         style="font-variant-ligatures:none;fill:#8cc3df;stroke-width:0;stroke-miterlimit:2"
         id="path48486" /><path
         stroke-miterlimit="2"
         d="m 369.1,426.93 q 0.46368,0 0.75072,0.30912 0.30912,0.30912 0.30912,0.75072 v 5.8733 q 0,2.2963 -1.2806,3.577 -1.2586,1.2586 -3.577,1.2586 -2.2963,0 -3.5549,-1.2586 -1.2586,-1.2806 -1.2586,-3.577 v -5.8733 q 0,-0.4416 0.28704,-0.75072 0.30912,-0.30912 0.75072,-0.30912 0.46368,0 0.75072,0.30912 0.30912,0.30912 0.30912,0.75072 v 5.8733 q 0,2.8925 2.7158,2.8925 1.3469,0 2.0534,-0.72864 0.70656,-0.72864 0.70656,-2.1638 v -5.8733 q 0,-0.4416 0.28704,-0.75072 0.30912,-0.30912 0.75072,-0.30912 z"
         style="font-variant-ligatures:none;fill:#8cc3df;stroke-width:0;stroke-miterlimit:2"
         id="path48488" /><path
         stroke-miterlimit="2"
         d="m 380.44,426.66 q 0.57408,0 0.9936,0.30912 0.41952,0.28704 0.41952,0.72864 0,0.52992 -0.28704,0.81696 -0.26496,0.26496 -0.6624,0.26496 -0.19872,0 -0.59616,-0.13248 -0.46368,-0.15456 -0.72864,-0.15456 -0.68448,0 -1.3469,0.48576 -0.64032,0.46368 -1.0598,1.3027 -0.39744,0.81696 -0.39744,1.8326 v 5.3213 q 0,0.4416 -0.30912,0.75072 -0.28704,0.30912 -0.75072,0.30912 -0.46368,0 -0.75072,-0.28704 -0.28704,-0.30912 -0.28704,-0.7728 v -9.4502 q 0,-0.4416 0.28704,-0.75072 0.30912,-0.30912 0.75072,-0.30912 0.46368,0 0.75072,0.30912 0.30912,0.30912 0.30912,0.75072 v 1.1261 q 0.48576,-1.0819 1.4573,-1.7443 0.97152,-0.68448 2.208,-0.70656 z"
         style="font-variant-ligatures:none;fill:#8cc3df;stroke-width:0;stroke-miterlimit:2"
         id="path48490" /><path
         stroke-miterlimit="2"
         d="m 394.84,432.27 q -0.0221,0.39744 -0.3312,0.68448 -0.30912,0.26496 -0.72864,0.26496 h -7.7722 q 0.15456,1.6118 1.2144,2.5834 1.0819,0.97152 2.6275,0.97152 1.0598,0 1.7222,-0.30912 0.6624,-0.30912 1.1702,-0.79488 0.3312,-0.19872 0.64032,-0.19872 0.37536,0 0.61824,0.26496 0.26496,0.26496 0.26496,0.61824 0,0.46368 -0.4416,0.83904 -0.64032,0.64032 -1.7002,1.0819 -1.0598,0.4416 -2.1638,0.4416 -1.7885,0 -3.1574,-0.75072 -1.3469,-0.75072 -2.0976,-2.0976 -0.72864,-1.3469 -0.72864,-3.047 0,-1.8547 0.75072,-3.2458 0.7728,-1.4131 2.0093,-2.1638 1.2586,-0.75072 2.6938,-0.75072 1.4131,0 2.6496,0.72864 1.2365,0.72864 1.9872,2.0093 0.75072,1.2806 0.7728,2.8704 z m -5.4096,-3.6653 q -1.2365,0 -2.1418,0.70656 -0.90528,0.68448 -1.1923,2.1418 h 6.5136 v -0.17664 q -0.1104,-1.1702 -1.0598,-1.921 -0.92736,-0.75072 -2.1197,-0.75072 z"
         style="font-variant-ligatures:none;fill:#8cc3df;stroke-width:0;stroke-miterlimit:2"
         id="path48492" /><path
         stroke-miterlimit="2"
         d="m 407.21,425.07 v 4.5706 h 5.4317 q 0.46368,0 0.75072,0.28704 0.30912,0.28704 0.30912,0.75072 0,0.39744 -0.30912,0.68448 -0.28704,0.28704 -0.75072,0.28704 H 407.21 v 5.785 q 0,0.4416 -0.3312,0.75072 -0.30912,0.30912 -0.75072,0.30912 -0.46368,0 -0.7728,-0.30912 -0.30912,-0.30912 -0.30912,-0.75072 v -13.336 q 0,-0.4416 0.30912,-0.75072 0.30912,-0.30912 0.75072,-0.30912 h 7.5293 q 0.46368,0 0.75072,0.28704 0.30912,0.28704 0.30912,0.75072 0,0.39744 -0.30912,0.70656 -0.30912,0.28704 -0.75072,0.28704 z"
         style="font-variant-ligatures:none;fill:#8cc3df;stroke-width:0;stroke-miterlimit:2"
         id="path48494" /><path
         stroke-miterlimit="2"
         d="m 420.9,437.44 q 0,0.4416 -0.30912,0.75072 -0.30912,0.30912 -0.75072,0.30912 -0.4416,0 -0.75072,-0.30912 -0.28704,-0.30912 -0.28704,-0.75072 v -14.22 q 0,-0.4416 0.30912,-0.75072 0.30912,-0.30912 0.75072,-0.30912 0.4416,0 0.72864,0.30912 Q 420.9,422.7784 420.9,423.22 Z"
         style="font-variant-ligatures:none;fill:#8cc3df;stroke-width:0;stroke-miterlimit:2"
         id="path48496" /><path
         stroke-miterlimit="2"
         d="m 434.99,426.77 q 0.46368,0 0.75072,0.30912 0.30912,0.28704 0.30912,0.7728 v 9.5827 q 0,0.4416 -0.30912,0.75072 -0.28704,0.30912 -0.75072,0.30912 -0.46368,0 -0.75072,-0.28704 -0.28704,-0.30912 -0.28704,-0.7728 v -0.57408 q -0.57408,0.7728 -1.5677,1.3248 -0.9936,0.52992 -2.1418,0.52992 -1.5014,0 -2.7379,-0.7728 -1.2144,-0.7728 -1.921,-2.1418 -0.68448,-1.391 -0.68448,-3.1133 0,-1.7222 0.68448,-3.0912 0.70656,-1.391 1.921,-2.1638 1.21444,-0.7728 2.6717,-0.7728 1.1702,0 2.1638,0.48576 1.0157,0.48576 1.6118,1.2365 v -0.52992 q 0,-0.46368 0.28704,-0.7728 0.28704,-0.30912 0.75072,-0.30912 z m -4.5043,10.002 q 1.0378,0 1.8326,-0.52992 0.81696,-0.52992 1.2586,-1.4573 0.46368,-0.92736 0.46368,-2.0976 0,-1.1482 -0.46368,-2.0755 -0.4416,-0.92736 -1.2586,-1.4573 -0.79488,-0.552 -1.8326,-0.552 -1.0378,0 -1.8547,0.52992 -0.79488,0.52992 -1.2586,1.4573 -0.4416,0.92736 -0.4416,2.0976 0,1.17024 0.4416,2.0976 0.46368,0.92736 1.2586,1.4573 0.81696,0.52992 1.8547,0.52992 z"
         style="font-variant-ligatures:none;fill:#8cc3df;stroke-width:0;stroke-miterlimit:2"
         id="path48498" /><path
         stroke-miterlimit="2"
         d="m 450.2,426.77 q 0.46368,0 0.75072,0.30912 0.30912,0.28704 0.30912,0.7728 v 9.7152 q 0,1.7885 -0.7728,2.9808 -0.75072,1.2144 -2.0534,1.7885 -1.3027,0.57408 -2.9366,0.57408 -0.8832,0 -2.0755,-0.30912 -1.1702,-0.30912 -1.5014,-0.64032 -0.68448,-0.35328 -0.68448,-0.8832 0,-0.13248 0.0883,-0.35328 0.24288,-0.552 0.81696,-0.552 0.28704,0 0.61824,0.13248 1.7664,0.68448 2.76,0.68448 1.7664,0 2.6938,-0.86112 0.94944,-0.83904 0.94944,-2.3184 v -1.1923 q -0.46368,0.86112 -1.5677,1.4794 -1.0819,0.61824 -2.2963,0.61824 -1.5235,0 -2.7821,-0.7728 -1.2586,-0.7728 -1.9872,-2.1418 -0.70656,-1.391 -0.70656,-3.1133 0,-1.7222 0.70656,-3.0912 0.72864,-1.391 1.9651,-2.1638 1.2586,-0.7728 2.76,-0.7728 1.2144,0 2.2522,0.552 1.0598,0.552 1.656,1.3469 V 427.852 q 0,-0.46368 0.28704,-0.7728 0.28704,-0.30912 0.75072,-0.30912 z m -4.6589,10.002 q 1.0819,0 1.921,-0.50784 0.83904,-0.52992 1.3027,-1.4573 0.48576,-0.94944 0.48576,-2.1197 0,-1.1702 -0.48576,-2.0976 -0.46368,-0.92736 -1.3027,-1.4573 -0.83904,-0.52992 -1.921,-0.52992 -1.0598,0 -1.8989,0.52992 -0.83904,0.52992 -1.3248,1.4794 -0.46368,0.92736 -0.46368,2.0755 0,1.1482 0.46368,2.0976 0.48576,0.92736 1.3248,1.4573 0.83904,0.52992 1.8989,0.52992 z"
         style="font-variant-ligatures:none;fill:#8cc3df;stroke-width:0;stroke-miterlimit:2"
         id="path48500" /><path
         stroke-miterlimit="2"
         d="m 471.26,426.77 q 0.46368,0 0.75072,0.30912 0.30912,0.28704 0.30912,0.7728 v 9.5827 q 0,0.4416 -0.30912,0.75072 -0.28704,0.30912 -0.75072,0.30912 -0.46368,0 -0.75072,-0.28704 -0.28704,-0.30912 -0.28704,-0.7728 v -0.57408 q -0.57408,0.7728 -1.5677,1.3248 -0.9936,0.52992 -2.1418,0.52992 -1.5014,0 -2.7379,-0.7728 -1.2144,-0.7728 -1.921,-2.1418 -0.68448,-1.391 -0.68448,-3.1133 0,-1.7222 0.68448,-3.0912 0.70656,-1.391 1.921,-2.1638 1.21444,-0.7728 2.6717,-0.7728 1.1702,0 2.1638,0.48576 1.0157,0.48576 1.6118,1.2365 v -0.52992 q 0,-0.46368 0.28704,-0.7728 0.28704,-0.30912 0.75072,-0.30912 z m -4.5043,10.002 q 1.0378,0 1.8326,-0.52992 0.81696,-0.52992 1.2586,-1.4573 0.46368,-0.92736 0.46368,-2.0976 0,-1.1482 -0.46368,-2.0755 -0.4416,-0.92736 -1.2586,-1.4573 -0.79488,-0.552 -1.8326,-0.552 -1.0378,0 -1.8547,0.52992 -0.79488,0.52992 -1.2586,1.4573 -0.4416,0.92736 -0.4416,2.0976 0,1.17024 0.4416,2.0976 0.46368,0.92736 1.2586,1.4573 0.81696,0.52992 1.8547,0.52992 z"
         style="font-variant-ligatures:none;fill:#8cc3df;stroke-width:0;stroke-miterlimit:2"
         id="path48502" /><path
         stroke-miterlimit="2"
         d="m 482.7,426.66 q 3.9744,0 3.9744,4.7693 v 6.0058 q 0,0.4416 -0.30912,0.75072 -0.28704,0.30912 -0.75072,0.30912 -0.4416,0 -0.75072,-0.30912 -0.28704,-0.30912 -0.28704,-0.75072 v -5.9837 q 0,-1.3027 -0.59616,-2.0755 -0.59616,-0.7728 -1.943,-0.7728 -0.8832,0 -1.6118,0.39744 -0.70656,0.37536 -1.1261,1.0378 -0.39744,0.64032 -0.39744,1.4131 v 5.9837 q 0,0.4416 -0.30912,0.75072 -0.28704,0.30912 -0.75072,0.30912 -0.46368,0 -0.75072,-0.28704 -0.28704,-0.30912 -0.28704,-0.7728 v -9.4502 q 0,-0.4416 0.28704,-0.75072 0.30912,-0.30912 0.75072,-0.30912 0.46368,0 0.75072,0.30912 0.30912,0.30912 0.30912,0.75072 v 0.7728 q 0.57408,-0.8832 1.5898,-1.4794 1.0378,-0.61824 2.208,-0.61824 z"
         style="font-variant-ligatures:none;fill:#8cc3df;stroke-width:0;stroke-miterlimit:2"
         id="path48504" /><path
         stroke-miterlimit="2"
         d="m 500.59,422.16 q 0.46368,0 0.75072,0.30912 0.30912,0.28704 0.30912,0.75072 v 14.22 q 0,0.4416 -0.30912,0.75072 -0.28704,0.30912 -0.75072,0.30912 -0.46368,0 -0.75072,-0.28704 -0.28704,-0.30912 -0.28704,-0.7728 v -0.61824 q -0.552,0.79488 -1.5677,1.3469 -0.9936,0.552 -2.1418,0.552 -1.5014,0 -2.7158,-0.7728 -1.2144,-0.7728 -1.921,-2.1418 -0.70656,-1.391 -0.70656,-3.1133 0,-1.7222 0.68448,-3.0912 0.70656,-1.391 1.921,-2.1638 1.21444,-0.7728 2.6717,-0.7728 1.1702,0 2.1638,0.48576 0.9936,0.48576 1.6118,1.2586 v -5.1888 q 0,-0.46368 0.28704,-0.75072 0.28704,-0.30912 0.75072,-0.30912 z m -4.5043,14.617 q 1.0378,0 1.8326,-0.52992 0.81696,-0.52992 1.2586,-1.4573 0.46368,-0.92736 0.46368,-2.0976 0,-1.1482 -0.46368,-2.0755 -0.4416,-0.94944 -1.2586,-1.4794 -0.79488,-0.52992 -1.8326,-0.52992 -1.0378,0 -1.8547,0.52992 -0.79488,0.52992 -1.2586,1.4794 -0.4416,0.92736 -0.4416,2.0755 0,1.1702 0.4416,2.0976 0.46368,0.92736 1.2586,1.4573 0.81696,0.52992 1.8547,0.52992 z"
         style="font-variant-ligatures:none;fill:#8cc3df;stroke-width:0;stroke-miterlimit:2"
         id="path48506" /><path
         stroke-miterlimit="2"
         d="m 524.39,437.13 q 0.0662,0.19872 0.0662,0.41952 0,0.4416 -0.30912,0.72864 -0.28704,0.28704 -0.68448,0.28704 -0.30912,0 -0.57408,-0.17664 -0.24288,-0.19872 -0.39744,-0.52992 l -1.369,-3.2458 h -6.8227 l -1.3469,3.2678 q -0.1104,0.3312 -0.37536,0.50784 -0.24288,0.17664 -0.552,0.17664 -0.46368,0 -0.70656,-0.24288 -0.24288,-0.24288 -0.24288,-0.6624 0,-0.0883 0.0442,-0.35328 l 5.6304,-13.645 q 0.15456,-0.35328 0.41952,-0.52992 0.28704,-0.19872 0.64032,-0.15456 0.3312,0 0.59616,0.17664 0.26496,0.17664 0.37536,0.50784 z m -9.2515,-4.5264 h 5.1446 l -2.5834,-6.1824 z"
         style="font-variant-ligatures:none;fill:#8cc3df;stroke-width:0;stroke-miterlimit:2"
         id="path48508" /><path
         stroke-miterlimit="2"
         d="m 527.66,441.41 q -0.35328,0 -0.6624,-0.26496 -0.28704,-0.26496 -0.28704,-0.64032 0,-0.17664 0.1104,-0.4416 l 9.2515,-18.636 q 0.30912,-0.59616 0.86112,-0.59616 0.3312,0 0.61824,0.26496 0.28704,0.24288 0.28704,0.61824 0,0.26496 -0.1104,0.48576 l -9.2294,18.636 Q 528.2341,441.41 527.66002,441.41 Z"
         style="font-variant-ligatures:none;fill:#8cc3df;stroke-width:0;stroke-miterlimit:2"
         id="path48510" /><path
         stroke-miterlimit="2"
         d="m 550.43,430.06 q 1.2144,0.41952 1.9872,1.391 0.79488,0.94944 0.79488,2.495 0,2.4509 -1.4352,3.5107 -1.4131,1.0378 -3.4666,1.0378 h -5.6746 q -0.4416,0 -0.75072,-0.30912 -0.30912,-0.30912 -0.30912,-0.75072 v -13.336 q 0,-0.4416 0.30912,-0.75072 0.30912,-0.30912 0.75072,-0.30912 h 5.6746 q 2.0093,0 3.047,0.9936 1.0598,0.9936 1.0598,2.8704 0,1.0598 -0.50784,1.8989 -0.50784,0.81696 -1.4794,1.2586 z m -0.28704,-2.8262 q 0,-1.0378 -0.57408,-1.5677 -0.552,-0.552 -1.5677,-0.552 h -4.1731 v 4.3056 h 4.2173 q 0.90528,-0.0221 1.5014,-0.57408 0.59616,-0.57408 0.59616,-1.6118 z m -1.8547,9.2294 q 1.2144,0 1.943,-0.61824 0.72864,-0.64032 0.72864,-1.8989 0,-2.4509 -2.7821,-2.4509 h -4.3498 v 4.968 z"
         style="font-variant-ligatures:none;fill:#8cc3df;stroke-width:0;stroke-miterlimit:2"
         id="path48512" /><path
         stroke-miterlimit="2"
         d="m 573.51,423.04 q 0.46368,0 0.75072,0.28704 0.30912,0.26496 0.30912,0.72864 0,0.46368 -0.30912,0.72864 -0.28704,0.26496 -0.75072,0.26496 h -3.9302 v 12.387 q 0,0.4416 -0.3312,0.75072 -0.30912,0.30912 -0.79488,0.30912 -0.48576,0 -0.81696,-0.30912 -0.30912,-0.30912 -0.30912,-0.75072 v -12.387 h -3.9082 q -0.46368,0 -0.7728,-0.26496 -0.28704,-0.28704 -0.28704,-0.75072 0,-0.4416 0.28704,-0.70656 0.30912,-0.28704 0.7728,-0.28704 z"
         style="font-variant-ligatures:none;fill:#8cc3df;stroke-width:0;stroke-miterlimit:2"
         id="path48514" /><path
         stroke-miterlimit="2"
         d="m 585.76,432.27 q -0.0221,0.39744 -0.3312,0.68448 -0.30912,0.26496 -0.72864,0.26496 h -7.7722 q 0.15456,1.6118 1.2144,2.5834 1.0819,0.97152 2.6275,0.97152 1.0598,0 1.7222,-0.30912 0.6624,-0.30912 1.1702,-0.79488 0.3312,-0.19872 0.64032,-0.19872 0.37536,0 0.61824,0.26496 0.26496,0.26496 0.26496,0.61824 0,0.46368 -0.4416,0.83904 -0.64032,0.64032 -1.7002,1.0819 -1.0598,0.4416 -2.1638,0.4416 -1.7885,0 -3.1574,-0.75072 -1.3469,-0.75072 -2.0976,-2.0976 -0.72864,-1.3469 -0.72864,-3.047 0,-1.8547 0.75072,-3.2458 0.7728,-1.4131 2.0093,-2.1638 1.2586,-0.75072 2.6938,-0.75072 1.4131,0 2.6496,0.72864 1.2365,0.72864 1.9872,2.0093 0.75072,1.2806 0.7728,2.8704 z m -5.4096,-3.6653 q -1.2365,0 -2.1418,0.70656 -0.90528,0.68448 -1.1923,2.1418 h 6.5136 v -0.17664 q -0.1104,-1.1702 -1.0598,-1.921 -0.92736,-0.75072 -2.1197,-0.75072 z"
         style="font-variant-ligatures:none;fill:#8cc3df;stroke-width:0;stroke-miterlimit:2"
         id="path48516" /><path
         stroke-miterlimit="2"
         d="m 588.91,436.69 q -0.19872,-0.30912 -0.19872,-0.59616 0,-0.4416 0.46368,-0.75072 0.2208,-0.15456 0.50784,-0.15456 0.39744,0 0.72864,0.3312 0.6624,0.75072 1.4131,1.1261 0.7728,0.37536 1.8326,0.37536 0.83904,-0.0221 1.4794,-0.37536 0.64032,-0.37536 0.64032,-1.1923 0,-0.75072 -0.6624,-1.1482 -0.64032,-0.39744 -1.8989,-0.72864 -1.2365,-0.3312 -2.0534,-0.68448 -0.81696,-0.37536 -1.391,-1.0598 -0.552,-0.70656 -0.552,-1.8326 0,-0.9936 0.552,-1.7443 0.57408,-0.75072 1.5014,-1.1702 0.94944,-0.41952 2.0534,-0.41952 1.0598,0 2.0976,0.39744 1.0598,0.39744 1.7222,1.2144 0.26496,0.30912 0.26496,0.64032 0,0.35328 -0.35328,0.68448 -0.2208,0.19872 -0.552,0.19872 -0.39744,0 -0.64032,-0.26496 -0.46368,-0.52992 -1.1482,-0.81696 -0.6624,-0.28704 -1.4794,-0.28704 -0.83904,0 -1.4352,0.35328 -0.57408,0.3312 -0.57408,1.1482 0.0221,0.7728 0.6624,1.1482 0.6624,0.37536 2.0093,0.72864 1.1702,0.30912 1.943,0.6624 0.7728,0.35328 1.3027,1.0598 0.52992,0.68448 0.52992,1.8106 0,1.0378 -0.59616,1.8106 -0.59616,0.75072 -1.5677,1.1702 -0.94944,0.39744 -2.0314,0.39744 -1.391,0 -2.5834,-0.48576 -1.1702,-0.48576 -1.9872,-1.5456 z"
         style="font-variant-ligatures:none;fill:#8cc3df;stroke-width:0;stroke-miterlimit:2"
         id="path48518" /><path
         stroke-miterlimit="2"
         d="m 604.61,428.98 v 6.5798 q 0,1.104 0.9936,1.104 0.15456,0 0.41952,-0.0662 0.26496,-0.0883 0.41952,-0.0883 0.28704,0 0.48576,0.24288 0.19872,0.24288 0.19872,0.61824 0,0.46368 -0.52992,0.79488 -0.52992,0.3312 -1.1923,0.3312 -0.72864,0 -1.3469,-0.15456 -0.59616,-0.15456 -1.0819,-0.7728 -0.46368,-0.64032 -0.46368,-1.921 v -6.6682 h -1.2806 q -0.41952,0 -0.70656,-0.26496 -0.26496,-0.28704 -0.26496,-0.70656 0,-0.41952 0.26496,-0.68448 0.28704,-0.26496 0.70656,-0.26496 h 1.2806 v -1.8547 q 0,-0.4416 0.28704,-0.75072 0.30912,-0.30912 0.7728,-0.30912 0.4416,0 0.72864,0.30912 0.30912,0.30912 0.30912,0.75072 v 1.8547 h 1.8326 q 0.41952,0 0.68448,0.28704 0.28704,0.26496 0.28704,0.68448 0,0.41952 -0.28704,0.68448 -0.26496,0.26496 -0.68448,0.26496 z"
         style="font-variant-ligatures:none;fill:#8cc3df;stroke-width:0;stroke-miterlimit:2"
         id="path48520" /><path
         stroke-miterlimit="2"
         d="m 623.84,423.04 q 1.1702,0 2.1638,0.64032 0.9936,0.61824 1.5677,1.7002 0.59616,1.0819 0.59616,2.3846 0,1.3027 -0.59616,2.4067 -0.57408,1.104 -1.5677,1.7443 -0.9936,0.64032 -2.1638,0.64032 h -4.151 v 4.8797 q 0,0.4416 -0.28704,0.75072 -0.28704,0.30912 -0.72864,0.30912 -0.46368,0 -0.75072,-0.28704 -0.26496,-0.30912 -0.26496,-0.7728 v -13.336 q 0,-0.4416 0.30912,-0.75072 0.30912,-0.30912 0.75072,-0.30912 z m 0,7.5072 q 0.59616,0 1.104,-0.37536 0.50784,-0.39744 0.79488,-1.0378 0.30912,-0.64032 0.30912,-1.369 0,-1.1261 -0.6624,-1.8989 -0.64032,-0.79488 -1.5456,-0.79488 h -4.151 v 5.4758 z"
         style="font-variant-ligatures:none;fill:#8cc3df;stroke-width:0;stroke-miterlimit:2"
         id="path48522" /><path
         stroke-miterlimit="2"
         d="m 634.28,437.44 q 0,0.4416 -0.30912,0.75072 -0.30912,0.30912 -0.75072,0.30912 -0.4416,0 -0.75072,-0.30912 -0.28704,-0.30912 -0.28704,-0.75072 v -14.22 q 0,-0.4416 0.30912,-0.75072 0.30912,-0.30912 0.75072,-0.30912 0.4416,0 0.72864,0.30912 0.30912,0.30912 0.30912,0.75072 z"
         style="font-variant-ligatures:none;fill:#8cc3df;stroke-width:0;stroke-miterlimit:2"
         id="path48524" /><path
         stroke-miterlimit="2"
         d="m 648.38,426.77 q 0.46368,0 0.75072,0.30912 0.30912,0.28704 0.30912,0.7728 v 9.5827 q 0,0.4416 -0.30912,0.75072 -0.28704,0.30912 -0.75072,0.30912 -0.46368,0 -0.75072,-0.28704 -0.28704,-0.30912 -0.28704,-0.7728 v -0.57408 q -0.57408,0.7728 -1.5677,1.3248 -0.9936,0.52992 -2.1418,0.52992 -1.5014,0 -2.7379,-0.7728 -1.2144,-0.7728 -1.921,-2.1418 -0.68448,-1.391 -0.68448,-3.1133 0,-1.7222 0.68448,-3.0912 0.70656,-1.391 1.921,-2.1638 1.21444,-0.7728 2.6717,-0.7728 1.1702,0 2.1638,0.48576 1.0157,0.48576 1.6118,1.2365 v -0.52992 q 0,-0.46368 0.28704,-0.7728 0.28704,-0.30912 0.75072,-0.30912 z m -4.5043,10.002 q 1.0378,0 1.8326,-0.52992 0.81696,-0.52992 1.2586,-1.4573 0.46368,-0.92736 0.46368,-2.0976 0,-1.1482 -0.46368,-2.0755 -0.4416,-0.92736 -1.2586,-1.4573 -0.79488,-0.552 -1.8326,-0.552 -1.0378,0 -1.8547,0.52992 -0.79488,0.52992 -1.2586,1.4573 -0.4416,0.92736 -0.4416,2.0976 0,1.17024 0.4416,2.0976 0.46368,0.92736 1.2586,1.4573 0.81696,0.52992 1.8547,0.52992 z"
         style="font-variant-ligatures:none;fill:#8cc3df;stroke-width:0;stroke-miterlimit:2"
         id="path48526" /><path
         stroke-miterlimit="2"
         d="m 657.05,428.98 v 6.5798 q 0,1.104 0.9936,1.104 0.15456,0 0.41952,-0.0662 0.26496,-0.0883 0.41952,-0.0883 0.28704,0 0.48576,0.24288 0.19872,0.24288 0.19872,0.61824 0,0.46368 -0.52992,0.79488 -0.52992,0.3312 -1.1923,0.3312 -0.72864,0 -1.3469,-0.15456 -0.59616,-0.15456 -1.0819,-0.7728 -0.46368,-0.64032 -0.46368,-1.921 v -6.6682 h -1.2806 q -0.41952,0 -0.70656,-0.26496 -0.26496,-0.28704 -0.26496,-0.70656 0,-0.41952 0.26496,-0.68448 0.28704,-0.26496 0.70656,-0.26496 h 1.2806 v -1.8547 q 0,-0.4416 0.28704,-0.75072 0.30912,-0.30912 0.7728,-0.30912 0.4416,0 0.72864,0.30912 0.30912,0.30912 0.30912,0.75072 v 1.8547 h 1.8326 q 0.41952,0 0.68448,0.28704 0.28704,0.26496 0.28704,0.68448 0,0.41952 -0.28704,0.68448 -0.26496,0.26496 -0.68448,0.26496 z"
         style="font-variant-ligatures:none;fill:#8cc3df;stroke-width:0;stroke-miterlimit:2"
         id="path48528" /><path
         stroke-miterlimit="2"
         d="m 668.09,424.06 q -0.72864,0 -1.0819,0.4416 -0.3312,0.4416 -0.3312,1.0819 v 1.5456 h 2.1859 q 0.4416,0 0.70656,0.28704 0.28704,0.26496 0.28704,0.68448 0,0.41952 -0.28704,0.68448 -0.26496,0.26496 -0.70656,0.26496 h -2.1859 v 8.3904 q 0,0.4416 -0.30912,0.75072 -0.28704,0.30912 -0.75072,0.30912 -0.4416,0 -0.75072,-0.30912 -0.28704,-0.30912 -0.28704,-0.75072 v -8.3904 h -1.369 q -0.41952,0 -0.70656,-0.26496 -0.28704,-0.26496 -0.28704,-0.68448 0,-0.41952 0.28704,-0.68448 0.28704,-0.28704 0.70656,-0.28704 h 1.369 v -1.5456 q 0,-1.5456 0.9936,-2.4509 0.9936,-0.92736 2.8042,-0.92736 0.75072,0 1.3248,0.28704 0.57408,0.26496 0.57408,0.81696 0,0.41952 -0.26496,0.70656 -0.24288,0.26496 -0.59616,0.26496 -0.0883,0 -0.48576,-0.0883 -0.48576,-0.13248 -0.83904,-0.13248 z"
         style="font-variant-ligatures:none;fill:#8cc3df;stroke-width:0;stroke-miterlimit:2"
         id="path48530" /><path
         stroke-miterlimit="2"
         d="m 684.1,432.71 q 0,1.7222 -0.7728,3.0912 -0.7728,1.369 -2.1197,2.1418 -1.3248,0.7728 -2.9366,0.7728 -1.6118,0 -2.9587,-0.7728 -1.3248,-0.7728 -2.0976,-2.1418 -0.7728,-1.369 -0.7728,-3.0912 0,-1.7222 0.7728,-3.1133 0.7728,-1.391 2.0976,-2.1638 1.3469,-0.7728 2.9587,-0.7728 1.6118,0 2.9366,0.7728 1.3469,0.7728 2.1197,2.1638 0.7728,1.391 0.7728,3.1133 z m -2.0976,0 q 0,-1.1923 -0.50784,-2.1197 -0.48576,-0.94944 -1.3469,-1.4573 -0.83904,-0.52992 -1.8768,-0.52992 -1.03776,0 -1.8989,0.52992 -0.83904,0.50784 -1.3469,1.4573 -0.48576,0.92736 -0.48576,2.1197 0,1.1702 0.48576,2.0976 0.50784,0.92736 1.3469,1.4573 0.86112,0.50784 1.8989,0.50784 1.03778,0 1.8768,-0.50784 0.86112,-0.52992 1.3469,-1.4573 0.50784,-0.92736 0.50784,-2.0976 z"
         style="font-variant-ligatures:none;fill:#8cc3df;stroke-width:0;stroke-miterlimit:2"
         id="path48532" /><path
         stroke-miterlimit="2"
         d="m 693.66,426.66 q 0.57408,0 0.9936,0.30912 0.41952,0.28704 0.41952,0.72864 0,0.52992 -0.28704,0.81696 -0.26496,0.26496 -0.6624,0.26496 -0.19872,0 -0.59616,-0.13248 -0.46368,-0.15456 -0.72864,-0.15456 -0.68448,0 -1.3469,0.48576 -0.64032,0.46368 -1.0598,1.3027 -0.39744,0.81696 -0.39744,1.8326 v 5.3213 q 0,0.4416 -0.30912,0.75072 -0.28704,0.30912 -0.75072,0.30912 -0.46368,0 -0.75072,-0.28704 -0.28704,-0.30912 -0.28704,-0.7728 v -9.4502 q 0,-0.4416 0.28704,-0.75072 0.30912,-0.30912 0.75072,-0.30912 0.46368,0 0.75072,0.30912 0.30912,0.30912 0.30912,0.75072 v 1.1261 q 0.48576,-1.0819 1.4573,-1.7443 0.97152,-0.68448 2.208,-0.70656 z"
         style="font-variant-ligatures:none;fill:#8cc3df;stroke-width:0;stroke-miterlimit:2"
         id="path48534" /><path
         stroke-miterlimit="2"
         d="m 711.65,426.73 q 3.864,0 3.864,4.8134 v 5.8954 q 0,0.46368 -0.28704,0.7728 -0.28704,0.28704 -0.75072,0.28704 -0.46368,0 -0.7728,-0.30912 -0.28704,-0.30912 -0.28704,-0.75072 v -5.8733 q 0,-2.8925 -2.4288,-2.8925 -0.86112,0 -1.5677,0.39744 -0.68448,0.37536 -1.0819,1.0378 -0.37536,0.6624 -0.37536,1.4573 v 5.8733 q 0,0.4416 -0.30912,0.75072 -0.28704,0.30912 -0.75072,0.30912 -0.46368,0 -0.75072,-0.28704 -0.28704,-0.30912 -0.28704,-0.7728 v -5.8954 q 0,-1.3027 -0.552,-2.0755 -0.552,-0.79488 -1.8326,-0.79488 -1.3027,0 -2.1638,0.83904 -0.83904,0.81696 -0.83904,2.0314 v 5.8954 q 0,0.4416 -0.30912,0.75072 -0.28704,0.30912 -0.75072,0.30912 -0.46368,0 -0.75072,-0.28704 -0.28704,-0.30912 -0.28704,-0.7728 v -9.4502 q 0,-0.4416 0.28704,-0.75072 0.30912,-0.30912 0.75072,-0.30912 0.46368,0 0.75072,0.30912 0.30912,0.30912 0.30912,0.75072 v 0.7728 q 0.57408,-0.86112 1.5235,-1.4352 0.97152,-0.59616 2.0976,-0.59616 2.7379,0 3.5549,2.4288 0.48576,-0.92736 1.6118,-1.6781 1.1261,-0.75072 2.3846,-0.75072 z"
         style="font-variant-ligatures:none;fill:#8cc3df;stroke-width:0;stroke-miterlimit:2"
         id="path48536" /><path
         stroke-miterlimit="2"
         d="m 300.01,326.08 v 63.63 h -5.67 v -63.63 h -21.375 v 12.69 h 11.925 v -3.78 h -8.145 v -5.13 h 13.815 v 63.63 h 13.23 v -63.63 h 13.77 v 5.13 h -8.1 v 3.78 h 11.88 v -12.69 z"
         style="font-variant-ligatures:none;fill:#4fb5fa;stroke:#4fb5fa;stroke-width:1.25;stroke-miterlimit:2"
         id="path48539" /><path
         stroke-miterlimit="2"
         d="m 354.39,380.8 v -25.245 h 23.04 v 5.13 h -17.37 v 3.78 h 21.15 v -12.69 h -30.6 v 32.805 h 28.485 v 5.13 H 344.94 v -59.85 h 33.525 v 5.13 H 350.61 v 11.655 h 3.78 v -7.875 h 27.855 V 326.08 H 341.16 v 67.41 h 41.715 V 380.8 Z"
         style="font-variant-ligatures:none;fill:#63baf1;stroke:#63baf1;stroke-width:1.25;stroke-miterlimit:2"
         id="path48541" /><path
         stroke-miterlimit="2"
         d="m 429.82,349.61 -1.26,3.555 c 10.8,4.455 15.615,11.205 15.615,21.375 0,12.06 -10.26,16.11 -20.79,16.11 -6.66,0 -12.42,-1.305 -18.765,-4.32 l 1.935,-5.13 c 6.165,2.88 11.835,4.32 16.83,4.32 13.185,0 15.12,-6.885 15.12,-10.98 0,-10.71 -7.155,-14.04 -13.41,-17.415 -4.905,-2.655 -9.27,-4.905 -9.27,-11.835 0,-4.77 3.465,-7.515 10.17,-7.515 5.265,0 10.125,1.53 15.615,4.365 l 4.5,-12.24 c -5.67,-2.88 -9.675,-4.815 -20.16,-4.815 -12.465,0 -23.355,6.84 -23.355,20.25 0,10.44 5.31,17.865 14.895,22.185 l 1.305,-3.555 c -6.975,-3.195 -12.42,-8.82 -12.42,-18.63 0,-10.935 8.82,-16.47 19.575,-16.47 8.28,0 11.43,1.125 15.435,2.925 l -1.89,5.175 c -4.815,-2.025 -9.09,-2.97 -13.5,-2.97 -9.99,0 -13.95,5.49 -13.95,11.295 0,8.82 5.535,12.105 11.16,15.12 5.715,3.105 11.52,5.445 11.52,14.13 0,5.04 -4.05,7.2 -11.34,7.2 -6.12,0 -12.735,-2.52 -18.9,-5.76 l -4.59,12.195 c 6.75,3.645 13.995,6.255 23.49,6.255 14.265,0 24.57,-6.75 24.57,-19.89 0,-12.42 -6.39,-20.16 -18.135,-24.93 z"
         style="font-variant-ligatures:none;fill:#77bee8;stroke:#77bee8;stroke-width:1.25;stroke-miterlimit:2"
         id="path48543" /><path
         stroke-miterlimit="2"
         d="m 491.42,326.08 v 63.63 h -5.67 v -63.63 h -21.375 v 12.69 H 476.3 v -3.78 h -8.145 v -5.13 h 13.815 v 63.63 h 13.23 v -63.63 h 13.77 v 5.13 h -8.1 v 3.78 h 11.88 v -12.69 z"
         style="font-variant-ligatures:none;fill:#8cc3e0;stroke:#8cc3e0;stroke-width:1.25;stroke-miterlimit:2"
         id="path48545" /><path
         stroke-miterlimit="2"
         d="m 569.92,380.8 v -50.94 h 5.67 v 45.81 h 3.78 v -49.59 h -13.23 v 58.5 h 33.48 v 5.13 h -33.48 v 3.78 H 603.4 V 380.8 Z"
         style="font-variant-ligatures:none;fill:#a0c8d7;stroke:#a0c8d7;stroke-width:1.25;stroke-miterlimit:2"
         id="path48547" /><path
         stroke-miterlimit="2"
         d="m 743.25,356.59 c 2.88,-3.555 4.185,-8.235 4.185,-12.87 0,-9 -7.83,-17.64 -20.88,-17.64 H 702.39 v 29.43 h 23.76 c 7.56,0 12.015,-3.96 12.015,-10.98 0,-4.5 -3.24,-9.54 -12.33,-9.54 H 711.84 v 11.61 h 3.78 v -7.83 h 10.215 c 5.04,0 8.55,1.935 8.55,5.76 0,4.68 -2.61,7.2 -7.875,7.2 h -20.34 v -21.87 h 20.385 c 10.8,0 17.1,6.795 17.1,13.86 0,7.65 -3.69,11.34 -6.615,13.635 6.12,2.61 10.215,7.56 10.215,15.975 0,8.73 -6.48,16.38 -18.45,16.38 H 706.17 v -25.335 h 21.735 c 6.795,0 9.9,4.005 9.9,8.415 0,4.275 -2.52,8.01 -8.82,8.01 H 715.62 v -11.295 h -3.78 v 15.075 h 17.145 c 8.64,0 12.6,-5.67 12.6,-11.79 0,-6.93 -5.265,-12.195 -13.68,-12.195 H 702.39 v 32.895 h 26.415 c 13.725,0 22.23,-9 22.23,-20.16 0,-7.56 -2.835,-13.095 -7.785,-16.74 z"
         style="font-variant-ligatures:none;fill:#c8d1c5;stroke:#c8d1c5;stroke-width:1.25;stroke-miterlimit:2"
         id="path48551" /><path
         style="fill:#d6dbca;stroke-width:0.33704999"
         d="m 649.31,327.18 h -8.9952 v 6.7464 h 2.2488 v 13.155 l -13.493,20.241 -13.493,20.236 v 7.0848 h 67.464 v -7.0834 l -13.48,-20.24 -13.49,-20.23 v -13.153 h 2.2488 v -6.7464 z m 0,2.2488 h 6.7464 v 2.2488 h -2.2488 v 16.079 l 7.3834,11.075 7.3834,11.075 h -38.532 l 7.3838,-11.076 7.3834,-11.075 v -16.079 h -2.2488 v -2.2488 z m 0,42.728 h 20.764 l 0.7498,1.1244 0.74981,1.1244 h -44.524 l 0.7498,-1.1244 0.7498,-1.1244 z m 0,4.4976 h 23.762 l 0.7498,1.1244 0.7498,1.1244 h -50.524 l 0.7498,-1.1244 0.7498,-1.1244 z m 0,4.4976 h 26.76 l 0.7498,1.1244 0.7498,1.1244 h -56.523 l 0.74981,-1.1244 0.7498,-1.1244 z m 0,4.4976 h 29.759 l 0.7498,1.1244 0.74981,1.1244 h -62.516 l 0.7498,-1.1244 0.7498,-1.1244 z m 0,4.4976 h 31.483 v 2.2488 h -62.968 v -2.2488 z m 3.2982,-32.813 c -0.005,-1.8e-4 -0.42091,0.41097 -0.92352,0.91378 l -0.91414,0.91431 0.33619,1.2516 c 0.18497,0.68849 0.33921,1.2545 0.34258,1.2576 0.004,0.003 0.56072,0.15442 1.2382,0.33582 0.67744,0.1816 1.2425,0.33002 1.2556,0.33002 0.0131,0 0.43419,-0.41117 0.93552,-0.91358 l 0.91152,-0.91357 -0.33507,-1.2443 c -0.1844,-0.68458 -0.33958,-1.2488 -0.34501,-1.2543 -0.005,-0.005 -0.5684,-0.15985 -1.2511,-0.34332 -0.6827,-0.18346 -1.2456,-0.33376 -1.2507,-0.33413 z m -9.5351,3.1905 c -0.008,0 -0.42597,0.41154 -0.92875,0.91431 l -0.91431,0.91452 0.33582,1.2509 c 0.18459,0.68795 0.3388,1.2532 0.34275,1.2558 0.004,0.003 0.56725,0.1546 1.252,0.33752 l 1.2451,0.33263 0.91468,-0.91451 c 0.50319,-0.50298 0.91469,-0.92463 0.91469,-0.937 0,-0.0122 -0.14767,-0.57289 -0.32832,-1.2456 -0.18066,-0.67275 -0.33451,-1.2292 -0.34201,-1.2363 -0.007,-0.007 -0.568,-0.16116 -1.2453,-0.34257 -0.67747,-0.17763 -1.2383,-0.32627 -1.2464,-0.32627 z"
         id="icon" /></g></g></svg>